<?xml version="1.0" encoding="UTF-8"?>
<svg width="20px" height="20px" viewBox="0 0 20 20" version="1.1" xmlns="http://www.w3.org/2000/svg" xmlns:xlink="http://www.w3.org/1999/xlink">
    <!-- Generator: Sketch 55.1 (78136) - https://sketchapp.com -->
    <title>2</title>
    <desc>Created with Sketch.</desc>
    <g id="Symbols" stroke="none" stroke-width="1" fill="none" fill-rule="evenodd">
        <g id="qa-ib" transform="translate(-16.000000, -275.000000)">
            <g id="2" transform="translate(16.000000, 275.000000)">
                <g id="checked-copy-19" fill="#95E2D2">
                    <g id="Group-4">
                        <g id="Group-2">
                            <circle id="Oval" cx="10" cy="10" r="10"></circle>
                        </g>
                    </g>
                </g>
                <path d="M12.867,13.39 C13.0536676,13.39 13.2018328,13.4424995 13.3115,13.5475 C13.4211672,13.6525005 13.476,13.7913325 13.476,13.964 L13.476,15 L6.532,15 L6.532,14.426 C6.532,14.3093328 6.55649976,14.186834 6.6055,14.0585 C6.65450025,13.930166 6.73266613,13.8146672 6.84,13.712 L9.913,10.632 C10.169668,10.3706654 10.399499,10.1210012 10.6025,9.883 C10.805501,9.64499881 10.974666,9.4093345 11.11,9.176 C11.245334,8.9426655 11.3491663,8.70583454 11.4215,8.4655 C11.4938337,8.22516547 11.53,7.97200133 11.53,7.706 C11.53,7.46333212 11.4950004,7.24983426 11.425,7.0655 C11.3549997,6.88116575 11.255834,6.72600063 11.1275,6.6 C10.999166,6.47399937 10.8451676,6.37950032 10.6655,6.3165 C10.4858324,6.25349969 10.2840011,6.222 10.06,6.222 C9.85466564,6.222 9.66450088,6.25116638 9.4895,6.3095 C9.31449913,6.36783363 9.15933401,6.44949948 9.024,6.5545 C8.88866599,6.65950053 8.7743338,6.7819993 8.681,6.922 C8.5876662,7.0620007 8.5176669,7.21599916 8.471,7.384 C8.39166627,7.59866774 8.28900063,7.74099965 8.163,7.811 C8.03699937,7.88100035 7.85500119,7.89733352 7.617,7.86 L6.707,7.699 C6.77700035,7.21366424 6.91233233,6.78783517 7.113,6.4215 C7.31366767,6.05516484 7.5644985,5.74950123 7.8655,5.5045 C8.16650151,5.25949878 8.51183139,5.07516729 8.9015,4.9515 C9.29116862,4.82783272 9.70999776,4.766 10.158,4.766 C10.624669,4.766 11.0516647,4.83483265 11.439,4.9725 C11.8263353,5.11016736 12.1576653,5.30499874 12.433,5.557 C12.7083347,5.80900126 12.9229992,6.11233156 13.077,6.467 C13.2310008,6.82166844 13.308,7.21599783 13.308,7.65 C13.308,8.0233352 13.2531672,8.36866508 13.1435,8.686 C13.0338328,9.00333492 12.8868343,9.30666522 12.7025,9.596 C12.5181657,9.88533478 12.3023346,10.165332 12.055,10.436 C11.8076654,10.706668 11.548668,10.9819986 11.278,11.262 L8.996,13.593 C9.21533443,13.5276663 9.43349892,13.4775002 9.6505,13.4425 C9.86750109,13.4074998 10.073999,13.39 10.27,13.39 L12.867,13.39 Z" fill="#FFFFFF" fill-rule="nonzero"></path>
            </g>
        </g>
    </g>
</svg>