<?xml version="1.0" encoding="UTF-8"?>
<svg width="20px" height="20px" viewBox="0 0 20 20" version="1.1" xmlns="http://www.w3.org/2000/svg" xmlns:xlink="http://www.w3.org/1999/xlink">
    <!-- Generator: Sketch 55.1 (78136) - https://sketchapp.com -->
    <title>3</title>
    <desc>Created with Sketch.</desc>
    <g id="Symbols" stroke="none" stroke-width="1" fill="none" fill-rule="evenodd">
        <g id="qa-ib" transform="translate(-15.000000, -476.000000)">
            <g id="3" transform="translate(15.000000, 476.000000)">
                <g id="checked-copy-18" fill="#95E2D2">
                    <g id="Group-4">
                        <g id="Group-2">
                            <circle id="Oval" cx="10" cy="10" r="10"></circle>
                        </g>
                    </g>
                </g>
                <path d="M6.756,7.699 C6.82600035,7.21366424 6.96133233,6.78783516 7.162,6.4215 C7.36266767,6.05516484 7.61349849,5.74950123 7.9145,5.5045 C8.2155015,5.25949877 8.56083138,5.07516729 8.9505,4.9515 C9.34016861,4.82783271 9.75899776,4.766 10.207,4.766 C10.673669,4.766 11.0948315,4.83249934 11.4705,4.9655 C11.8461685,5.09850067 12.1669987,5.28283215 12.433,5.5185 C12.6990013,5.75416784 12.903166,6.03066508 13.0455,6.348 C13.187834,6.66533492 13.259,7.00833149 13.259,7.377 C13.259,7.69900161 13.2228337,7.98249878 13.1505,8.2275 C13.0781663,8.47250122 12.974334,8.68599909 12.839,8.868 C12.703666,9.05000091 12.5356677,9.20399937 12.335,9.33 C12.1343323,9.45600063 11.9080013,9.56099958 11.656,9.645 C12.2626697,9.83633429 12.7153318,10.127998 13.014,10.52 C13.3126682,10.912002 13.462,11.4043304 13.462,11.997 C13.462,12.5010025 13.3686676,12.9466647 13.182,13.334 C12.9953324,13.7213353 12.7433349,14.046832 12.426,14.3105 C12.1086651,14.574168 11.7411688,14.773666 11.3235,14.909 C10.9058312,15.044334 10.463669,15.112 9.997,15.112 C9.48833079,15.112 9.04500189,15.0536672 8.667,14.937 C8.28899811,14.8203327 7.9600014,14.6476678 7.68,14.419 C7.3999986,14.1903322 7.16200098,13.910335 6.966,13.579 C6.76999902,13.247665 6.6020007,12.8650022 6.462,12.431 L7.225,12.116 C7.42566767,12.0319996 7.61349912,12.0098331 7.7885,12.0495 C7.96350087,12.0891669 8.09066627,12.1836659 8.17,12.333 C8.25400042,12.4963341 8.34616616,12.6573325 8.4465,12.816 C8.54683383,12.9746675 8.6669993,13.1158327 8.807,13.2395 C8.9470007,13.3631673 9.11149905,13.4634996 9.3005,13.5405 C9.48950094,13.6175004 9.71466536,13.656 9.976,13.656 C10.2700015,13.656 10.5266656,13.6081671 10.746,13.5125 C10.9653344,13.4168329 11.1484993,13.2920008 11.2955,13.138 C11.4425007,12.9839992 11.5521663,12.8125009 11.6245,12.6235 C11.6968337,12.4344991 11.733,12.2443343 11.733,12.053 C11.733,11.8103321 11.7073336,11.5898343 11.656,11.3915 C11.6046664,11.1931657 11.4973341,11.0240007 11.334,10.884 C11.1706658,10.7439993 10.9361682,10.6343337 10.6305,10.555 C10.3248318,10.4756663 9.9153359,10.436 9.402,10.436 L9.402,9.204 C9.82666879,9.19933331 10.1789986,9.15966704 10.459,9.085 C10.7390014,9.01033296 10.9618325,8.90650067 11.1275,8.7735 C11.2931675,8.64049934 11.4086663,8.4806676 11.474,8.294 C11.5393337,8.1073324 11.572,7.90200112 11.572,7.678 C11.572,7.20199762 11.4390013,6.84033457 11.173,6.593 C10.9069987,6.34566543 10.5523355,6.222 10.109,6.222 C9.90366564,6.222 9.71466753,6.25116638 9.542,6.3095 C9.36933247,6.36783363 9.21416735,6.44949947 9.0765,6.5545 C8.93883264,6.65950052 8.8233338,6.7819993 8.73,6.922 C8.6366662,7.0620007 8.5666669,7.21599916 8.52,7.384 C8.44066627,7.59866774 8.33683397,7.74099965 8.2085,7.811 C8.08016602,7.88100035 7.8993345,7.89733352 7.666,7.86 L6.756,7.699 Z" fill="#FFFFFF" fill-rule="nonzero"></path>
            </g>
        </g>
    </g>
</svg>