<?xml version="1.0" encoding="UTF-8"?>
<svg width="20px" height="20px" viewBox="0 0 20 20" version="1.1" xmlns="http://www.w3.org/2000/svg" xmlns:xlink="http://www.w3.org/1999/xlink">
    <title>5</title>
    <g id="main" stroke="none" stroke-width="1" fill="none" fill-rule="evenodd">
        <g id="regulations-1440-copy" transform="translate(-6.000000, -2583.000000)">
            <g id="5" transform="translate(6.000000, 2583.000000)">
                <g id="Group-2" fill="#95E2D2">
                    <circle id="Oval" cx="10" cy="10" r="10"></circle>
                </g>
                <path d="M9.5713525,15 C10.127973,15 10.6460774,14.9093407 11.1256656,14.728022 C11.6052538,14.5467033 12.0214767,14.288576 12.3743344,13.9536401 C12.727192,13.6187042 13.0030174,13.2145147 13.2018104,12.7410714 C13.4006035,12.2676282 13.5,11.7413004 13.5,11.1620879 C13.5,10.6936813 13.4266951,10.259272 13.2800852,9.85885989 C13.1334753,9.4584478 12.914803,9.10966117 12.6240682,8.8125 C12.3333333,8.51533883 11.9730209,8.28239469 11.543131,8.11366758 C11.113241,7.94494048 10.6175009,7.86057692 10.0559105,7.86057692 C9.8372382,7.86057692 9.60986865,7.8731685 9.37380192,7.89835165 C9.13773518,7.9235348 8.89048633,7.96382784 8.63205538,8.01923077 L8.63205538,8.01923077 L9.06443024,5.48832418 L12.2103301,5.48832418 C12.5482783,5.48832418 12.7893149,5.41529304 12.9334398,5.26923077 C13.0775648,5.1231685 13.1496273,4.93429487 13.1496273,4.70260989 L13.1496273,4.70260989 L13.1496273,4 L7.95367412,4 L7.07401491,9.1978022 L8.07294995,9.48489011 C8.35623003,9.38919414 8.63578275,9.31868132 8.91160809,9.27335165 C9.18743344,9.22802198 9.4570465,9.20535714 9.72044728,9.20535714 C10.0782748,9.20535714 10.3938587,9.25194597 10.6671991,9.34512363 C10.9405396,9.43830128 11.1679091,9.57303114 11.3493078,9.74931319 C11.5307064,9.92559524 11.6673766,10.139652 11.7593184,10.3914835 C11.8512602,10.643315 11.8972311,10.9278846 11.8972311,11.2451923 C11.8972311,11.5927198 11.8475328,11.9125458 11.7481363,12.2046703 C11.6487398,12.4967949 11.5033724,12.7473672 11.3120341,12.9563874 C11.1206958,13.1654075 10.8858715,13.3278388 10.6075612,13.4436813 C10.329251,13.5595238 10.013667,13.6174451 9.66080937,13.6174451 C9.33777068,13.6174451 9.05946042,13.577152 8.82587859,13.4965659 C8.59229677,13.4159799 8.38977636,13.329098 8.21831736,13.2359203 C8.04685836,13.1427427 7.89652112,13.0558608 7.76730564,12.9752747 C7.63809017,12.8946886 7.51881434,12.8543956 7.40947817,12.8543956 C7.23553426,12.8543956 7.09637913,12.9299451 6.99201278,13.081044 L6.99201278,13.081044 L6.5,13.7760989 C6.67394391,13.9372711 6.87025204,14.0921474 7.08892439,14.240728 C7.30759673,14.3893086 7.54614838,14.520261 7.80457934,14.6335852 C8.06301029,14.7469093 8.3400781,14.8363095 8.63578275,14.9017857 C8.9314874,14.9672619 9.24334398,15 9.5713525,15 Z" fill="#FFFFFF" fill-rule="nonzero"></path>
            </g>
        </g>
    </g>
</svg>