<?xml version="1.0" encoding="UTF-8"?>
<svg width="20px" height="20px" viewBox="0 0 20 20" version="1.1" xmlns="http://www.w3.org/2000/svg" xmlns:xlink="http://www.w3.org/1999/xlink">
    <title>6</title>
    <g id="main" stroke="none" stroke-width="1" fill="none" fill-rule="evenodd">
        <g id="regulations-1440-copy" transform="translate(-33.000000, -2583.000000)">
            <g id="6" transform="translate(33.000000, 2583.000000)">
                <g id="Group-2" fill="#95E2D2">
                    <circle id="Oval" cx="10" cy="10" r="10"></circle>
                </g>
                <path d="M9.94691608,15 C10.475396,15 10.9578699,14.9055632 11.3943377,14.7166896 C11.8308055,14.5278159 12.2047523,14.2709478 12.516178,13.9460852 C12.8276036,13.6212225 13.0694304,13.2396978 13.2416582,12.801511 C13.4138861,12.3633242 13.5,11.8923993 13.5,11.3887363 C13.5,10.8598901 13.417425,10.3927427 13.252275,9.98729396 C13.087125,9.58184524 12.8665319,9.24187271 12.5904954,8.96737637 C12.314459,8.69288004 11.9947759,8.48637821 11.6314459,8.34787088 C11.2681159,8.20936355 10.888271,8.14010989 10.491911,8.14010989 C10.1946411,8.14010989 9.91624537,8.17788462 9.65672396,8.25343407 C9.39720256,8.32898352 9.15891473,8.43223443 8.94186047,8.56318681 C9.00792046,8.47252747 9.07516009,8.38186813 9.14357937,8.29120879 C9.21199865,8.20054945 9.28395686,8.10485348 9.35945399,8.00412088 L9.35945399,8.00412088 L12.3816987,4 L11.036906,4 C10.8576003,4 10.6959892,4.03777473 10.5520728,4.11332418 C10.4081564,4.18887363 10.2984496,4.27953297 10.2229525,4.3853022 L10.2229525,4.3853022 L7.7173913,7.9739011 C7.30215706,8.56822344 6.99544995,9.13484432 6.79726997,9.67376374 C6.59908999,10.2126832 6.5,10.7289377 6.5,11.2225275 C6.5,11.7916667 6.58021571,12.3079212 6.74064712,12.7712912 C6.90107853,13.2346612 7.13110886,13.6312958 7.43073812,13.9611951 C7.73036737,14.2910943 8.09251769,14.5467033 8.51718908,14.728022 C8.94186047,14.9093407 9.41843613,15 9.94691608,15 Z M9.91860465,13.6552198 C9.6024604,13.6552198 9.32288507,13.6023352 9.07987867,13.4965659 C8.83687226,13.3907967 8.63279407,13.2434753 8.46764408,13.0546016 C8.3024941,12.865728 8.17745197,12.6378205 8.09251769,12.3708791 C8.00758342,12.1039377 7.96511628,11.8092949 7.96511628,11.4869505 C7.96511628,11.1998626 8.01230199,10.9278846 8.10667341,10.6710165 C8.20104483,10.4141484 8.3355241,10.1900183 8.51011122,9.99862637 C8.68469835,9.80723443 8.8958544,9.65613553 9.14357937,9.54532967 C9.39130435,9.43452381 9.66852039,9.37912088 9.9752275,9.37912088 C10.2724975,9.37912088 10.5449949,9.42822802 10.7927199,9.52644231 C11.0404449,9.62465659 11.2527806,9.76442308 11.429727,9.94574176 C11.6066734,10.1270604 11.743512,10.3499313 11.8402427,10.6143544 C11.9369734,10.8787775 11.9853387,11.1771978 11.9853387,11.5096154 C11.9853387,11.8168498 11.9357937,12.1014194 11.8367037,12.3633242 C11.7376138,12.6252289 11.5972363,12.8518773 11.4155713,13.0432692 C11.2339063,13.2346612 11.0156724,13.3845009 10.7608696,13.4927885 C10.5060667,13.601076 10.2253118,13.6552198 9.91860465,13.6552198 Z" fill="#FFFFFF" fill-rule="nonzero"></path>
            </g>
        </g>
    </g>
</svg>