<?xml version="1.0" encoding="UTF-8"?>
<svg width="20px" height="20px" viewBox="0 0 20 20" version="1.1" xmlns="http://www.w3.org/2000/svg" xmlns:xlink="http://www.w3.org/1999/xlink">
    <title>7</title>
    <g id="main" stroke="none" stroke-width="1" fill="none" fill-rule="evenodd">
        <g id="regulations-1440-copy" transform="translate(-59.000000, -2583.000000)">
            <g id="7" transform="translate(59.000000, 2583.000000)">
                <g id="Group-2" fill="#95E2D2">
                    <circle id="Oval" cx="10" cy="10" r="10"></circle>
                </g>
                <path d="M8.23708207,15 C8.48024316,15 8.67612293,14.9452546 8.82472138,14.8357639 C8.97331982,14.7262731 9.0881459,14.5900463 9.16919959,14.4270833 L9.16919959,14.4270833 L13.781155,5.58125 C13.8297872,5.48958333 13.8784195,5.3775463 13.9270517,5.24513889 C13.9756839,5.11273148 14,4.93958333 14,4.72569444 L14,4.72569444 L14,4 L6,4 L6,5.11527778 C6,5.21712963 6.04052685,5.30752315 6.12158055,5.38645833 C6.20263425,5.46539352 6.29719689,5.50486111 6.40526849,5.50486111 L6.40526849,5.50486111 L12.2330294,5.50486111 C12.1249578,5.62199074 12.0276933,5.74421296 11.9412361,5.87152778 C11.8547788,5.99884259 11.7683215,6.14143519 11.6818642,6.29930556 L11.6818642,6.29930556 L6.98074975,15 L8.23708207,15 Z" fill="#FFFFFF" fill-rule="nonzero"></path>
            </g>
        </g>
    </g>
</svg>