<svg
    width="32"
    height="32"
    viewBox="0 0 32 32"
    fill="none"
    xmlns="http://www.w3.org/2000/svg"
>
    <path
        d="M12 5.5C12 5.10218 12.158 4.72064 12.4393 4.43934C12.7206 4.15804 13.1022 4 13.5 4H18V10H12V5.5ZM5.5 12C5.10218 12 4.72064 12.158 4.43934 12.4393C4.15804 12.7206 4 13.1022 4 13.5V16.5C4 17.328 4.672 18 5.5 18H10V12H5.5ZM18 12H12V18H16.5C16.8978 18 17.2794 17.842 17.5607 17.5607C17.842 17.2794 18 16.8978 18 16.5V12ZM24.5 4H20V10H24.5C24.8978 10 25.2794 9.84196 25.5607 9.56066C25.842 9.27936 26 8.89782 26 8.5V5.5C26 5.10218 25.842 4.72064 25.5607 4.43934C25.2794 4.15804 24.8978 4 24.5 4ZM6 23.5C6 23.1022 6.15804 22.7206 6.43934 22.4393C6.72064 22.158 7.10218 22 7.5 22H12V28H7.5C7.10218 28 6.72064 27.842 6.43934 27.5607C6.15804 27.2794 6 26.8978 6 26.5V23.5ZM20 22H14V28H20V22ZM22 22H28V26.5C28 26.8978 27.842 27.2794 27.5607 27.5607C27.2794 27.842 26.8978 28 26.5 28H22V22ZM23.5 14C23.1022 14 22.7206 14.158 22.4393 14.4393C22.158 14.7206 22 15.1022 22 15.5V20H28V15.5C28 15.1022 27.842 14.7206 27.5607 14.4393C27.2794 14.158 26.8978 14 26.5 14H23.5Z"
        fill="#985EFF"
    />
</svg>