<svg width="458" height="440" viewBox="0 0 458 440" fill="none" xmlns="http://www.w3.org/2000/svg">
<ellipse opacity="0.1" cx="226.86" cy="220" rx="219.438" ry="220" fill="url(#paint0_linear_7806_83958)"/>
<ellipse opacity="0.13" cx="226.858" cy="220" rx="147.72" ry="148.098" fill="url(#paint1_linear_7806_83958)"/>
<path d="M307.64 406.732C390.68 406.732 457.998 398.193 457.998 387.66C457.998 377.126 390.68 368.587 307.64 368.587C224.599 368.587 157.281 377.126 157.281 387.66C157.281 398.193 224.599 406.732 307.64 406.732Z" fill="#F0F0F0"/>
<path d="M365.447 192.762L371.383 198.718" stroke="#01082B" stroke-width="0.723854" stroke-linecap="round" stroke-linejoin="round"/>
<path d="M365.447 198.718L371.383 192.762" stroke="#01082B" stroke-width="0.723854" stroke-linecap="round" stroke-linejoin="round"/>
<path d="M385.818 184.78L390.855 180.865L395.891 184.78L400.932 180.865L405.969 184.78L411.009 180.865" stroke="#01082B" stroke-width="0.723854" stroke-linecap="round" stroke-linejoin="round"/>
<path d="M398.026 226.599C405.027 226.599 410.704 220.908 410.704 213.889C410.704 206.869 405.027 201.178 398.026 201.178C391.024 201.178 385.348 206.869 385.348 213.889C385.348 220.908 391.024 226.599 398.026 226.599Z" stroke="#1D1D1B" stroke-width="0.723854" stroke-linecap="round" stroke-linejoin="round"/>
<path d="M398.027 221.505C402.222 221.505 405.624 218.095 405.624 213.888C405.624 209.682 402.222 206.272 398.027 206.272C393.831 206.272 390.43 209.682 390.43 213.888C390.43 218.095 393.831 221.505 398.027 221.505Z" fill="#F2EDFD" stroke="#01082B" stroke-width="0.72" stroke-linecap="round" stroke-linejoin="round"/>
<path d="M405.629 213.889H410.714" stroke="#1D1D1B" stroke-width="0.723854" stroke-linecap="round" stroke-linejoin="round"/>
<path d="M398.027 201.178V206.272" stroke="#1D1D1B" stroke-width="0.723854" stroke-linecap="round" stroke-linejoin="round"/>
<path d="M300.966 270.436L294.58 272.449C294.117 272.579 293.725 272.889 293.489 273.309C293.254 273.729 293.195 274.226 293.324 274.69C293.454 275.154 293.763 275.548 294.182 275.784C294.601 276.02 295.097 276.079 295.56 275.949L302.061 274.329C302.637 276.629 303.1 278.97 303.451 281.351C299.189 284.342 296.158 288.785 294.923 293.852C290.092 313.54 287.148 327.21 282.085 344.702C273.993 352.584 264.191 358.481 253.446 361.93C242.701 365.379 231.305 366.287 220.152 364.582C208.999 362.878 198.391 358.607 189.159 352.104C179.927 345.602 172.323 337.045 166.942 327.103C142.347 286.231 169.613 220.259 229.449 218.884L225.798 224.478C225.675 224.665 225.607 224.882 225.601 225.105C225.595 225.329 225.651 225.549 225.764 225.742C225.877 225.935 226.041 226.092 226.238 226.197C226.435 226.301 226.658 226.347 226.88 226.331L228.216 226.242L233.947 225.849C240.275 225.402 236.57 225.282 242.261 219.67L242.301 219.715C246.01 220.28 249.67 221.136 253.247 222.273C264.481 225.856 274.686 232.106 282.994 240.491C291.302 248.876 297.467 259.149 300.966 270.436Z" fill="#C4F0E9"/>
<path d="M184.182 380.806V384.119" stroke="#01082B" stroke-width="0.723854" stroke-linecap="round" stroke-linejoin="round"/>
<path d="M189.115 374.355V384.119" stroke="#01082B" stroke-width="0.723854" stroke-linecap="round" stroke-linejoin="round"/>
<path d="M194.045 369.431V384.119" stroke="#01082B" stroke-width="0.723854" stroke-linecap="round" stroke-linejoin="round"/>
<path d="M198.977 365.547V384.12" stroke="#01082B" stroke-width="0.723854" stroke-linecap="round" stroke-linejoin="round"/>
<path d="M203.91 362.453V384.119" stroke="#01082B" stroke-width="0.723854" stroke-linecap="round" stroke-linejoin="round"/>
<path d="M208.842 360.015V384.119" stroke="#01082B" stroke-width="0.723854" stroke-linecap="round" stroke-linejoin="round"/>
<path d="M213.775 358.145V384.119" stroke="#01082B" stroke-width="0.723854" stroke-linecap="round" stroke-linejoin="round"/>
<path d="M218.705 356.787V384.119" stroke="#01082B" stroke-width="0.723854" stroke-linecap="round" stroke-linejoin="round"/>
<path d="M223.635 355.899V384.119" stroke="#01082B" stroke-width="0.723854" stroke-linecap="round" stroke-linejoin="round"/>
<path d="M228.568 355.457V384.118" stroke="#01082B" stroke-width="0.723854" stroke-linecap="round" stroke-linejoin="round"/>
<path d="M278.115 380.806V384.119" stroke="#01082B" stroke-width="0.723854" stroke-linecap="round" stroke-linejoin="round"/>
<path d="M273.184 374.355V384.119" stroke="#01082B" stroke-width="0.723854" stroke-linecap="round" stroke-linejoin="round"/>
<path d="M268.254 369.431V384.119" stroke="#01082B" stroke-width="0.723854" stroke-linecap="round" stroke-linejoin="round"/>
<path d="M263.32 365.547V384.12" stroke="#01082B" stroke-width="0.723854" stroke-linecap="round" stroke-linejoin="round"/>
<path d="M258.389 362.453V384.119" stroke="#01082B" stroke-width="0.723854" stroke-linecap="round" stroke-linejoin="round"/>
<path d="M253.459 360.015V384.119" stroke="#01082B" stroke-width="0.723854" stroke-linecap="round" stroke-linejoin="round"/>
<path d="M248.527 358.145V384.119" stroke="#01082B" stroke-width="0.723854" stroke-linecap="round" stroke-linejoin="round"/>
<path d="M243.598 356.787V384.119" stroke="#01082B" stroke-width="0.723854" stroke-linecap="round" stroke-linejoin="round"/>
<path d="M238.668 355.899V384.119" stroke="#01082B" stroke-width="0.723854" stroke-linecap="round" stroke-linejoin="round"/>
<path d="M233.73 355.457V384.118" stroke="#01082B" stroke-width="0.723854" stroke-linecap="round" stroke-linejoin="round"/>
<path d="M226.391 247.596L232.919 254.141" stroke="#01082B" stroke-width="0.723854" stroke-linecap="round" stroke-linejoin="round"/>
<path d="M226.391 254.141L232.919 247.596" stroke="#01082B" stroke-width="0.723854" stroke-linecap="round" stroke-linejoin="round"/>
<path d="M226.391 247.596L232.919 254.141" stroke="#01082B" stroke-width="1.08578" stroke-linecap="round" stroke-linejoin="round"/>
<path d="M226.391 254.141L232.919 247.596" stroke="#01082B" stroke-width="1.08578" stroke-linecap="round" stroke-linejoin="round"/>
<path d="M207.713 262.315C209.209 262.315 210.421 261.1 210.421 259.601C210.421 258.102 209.209 256.886 207.713 256.886C206.218 256.886 205.006 258.102 205.006 259.601C205.006 261.1 206.218 262.315 207.713 262.315Z" fill="#01082B"/>
<path d="M429.223 350.831L451.662 386.547L449.965 387.31C449.199 387.646 448.392 387.88 447.565 388.007L424.409 351.563L424.387 351.385L429.223 350.831Z" fill="white"/>
<path d="M424.404 351.568L447.56 388.012C446.29 388.205 444.994 388.141 443.75 387.823C442.505 387.505 441.337 386.939 440.315 386.159L431.921 379.761C429.93 378.248 426.475 374.85 423.66 374.078C423.696 373.841 423.749 373.591 423.816 373.288C424.073 372.093 424.092 370.859 423.872 369.657C423.652 368.455 423.197 367.309 422.534 366.283L413.846 352.613L424.377 351.39L424.404 351.568Z" fill="#01082B"/>
<path d="M422.54 366.284C423.203 367.309 423.658 368.456 423.878 369.658C424.098 370.86 424.079 372.094 423.822 373.289C423.755 373.592 423.702 373.842 423.666 374.079C423.056 373.885 422.402 373.869 421.783 374.034L416.319 374.726L413.055 352.703L413.852 352.614L422.54 366.284Z" fill="white"/>
<path d="M416.768 377.784L362.178 383.588L355.944 384.253C353.465 384.515 350.959 384.203 348.619 383.342C346.279 382.48 344.168 381.092 342.448 379.283C340.727 377.475 339.443 375.295 338.695 372.912C337.947 370.528 337.754 368.004 338.131 365.534L338.893 360.587L347.055 310.523L348.008 304.719L364.885 305.808C367.703 305.97 370.511 305.37 373.018 304.071C375.525 302.772 377.638 300.822 379.135 298.424L377.154 308.183L367.121 357.583L413.05 352.703L416.314 374.726L416.768 377.784Z" fill="#F2EDFD"/>
<path d="M379.138 298.415L377.157 308.174C374.437 310.096 371.177 311.099 367.85 311.036L350.928 310.634L347.045 310.54L348.011 304.718L364.888 305.808C367.706 305.969 370.514 305.37 373.021 304.071C375.528 302.772 377.641 300.821 379.138 298.423V298.415Z" fill="#01082B"/>
<path d="M294.674 246.033L289.33 247.751C285.796 243.104 281.723 238.896 277.195 235.215L290.688 230.92L294.674 246.033Z" fill="white"/>
<path d="M363.211 248.046L369.445 265.529L327.431 267.105H325.779C325.138 263.993 323.35 261.239 320.773 259.39C318.864 257.983 317.519 255.939 316.979 253.627C316.438 251.314 316.738 248.884 317.825 246.773C318.542 245.385 318.686 243.771 318.226 242.278L318.128 241.952C318.002 241.544 317.796 241.164 317.523 240.836C317.25 240.508 316.915 240.238 316.537 240.04C316.159 239.842 315.746 239.722 315.321 239.685C314.896 239.649 314.469 239.697 314.062 239.827L294.674 246.037L290.666 230.925L322.755 220.71C322.755 220.71 318.337 230.759 328.486 227.335C338.635 223.911 342.58 214.388 342.58 214.388L351.544 211.535C355.746 210.201 360.301 210.56 364.242 212.538C368.184 214.515 371.202 217.954 372.656 222.125L379.487 242.3L363.211 248.046Z" fill="#01082B"/>
<path d="M353.015 179.74C353.906 190.901 350.904 205.187 338.632 211.317C336.712 206.33 335.127 201.388 333.479 195.825C334.293 195.559 334.99 195.022 335.456 194.302C335.921 193.583 336.126 192.725 336.036 191.872C335.947 191.019 335.568 190.223 334.963 189.616C334.358 189.01 333.564 188.629 332.713 188.539H332.678C332.01 188.478 331.344 188.674 330.816 189.088C324.876 193.749 315.458 194.165 310.916 188.102C310.353 188.597 309.949 189.247 309.755 189.972C309.561 190.697 309.585 191.463 309.825 192.173C310.951 195.58 311.094 198.303 310.23 201.276C306.667 196.08 304.187 189.222 309.477 183.191C319.626 171.637 330.808 178.726 334.245 180.601C337.683 182.477 346.652 186.294 353.015 179.74Z" fill="#01082B"/>
<path d="M340.174 215.17L342.583 214.406C342.583 214.406 338.633 223.916 328.485 227.353C318.336 230.791 322.758 220.715 322.758 220.715L325.02 219.991L324.187 210.12C318.327 212.656 312.872 213.143 312.917 205.209C312.918 204.949 312.83 204.697 312.668 204.494C312.506 204.291 312.279 204.149 312.026 204.093L310.69 203.799C310.539 203.765 310.396 203.699 310.272 203.606C310.148 203.512 310.045 203.393 309.971 203.256C309.897 203.12 309.853 202.969 309.842 202.814C309.83 202.658 309.852 202.503 309.906 202.357C310.04 201.991 310.156 201.629 310.258 201.276C311.122 198.303 310.98 195.58 309.853 192.173C309.61 191.465 309.581 190.701 309.769 189.977C309.958 189.252 310.356 188.6 310.913 188.102C315.455 194.164 324.873 193.749 330.814 189.088C331.337 188.667 332.001 188.462 332.671 188.517H332.706C333.557 188.607 334.351 188.987 334.956 189.593C335.561 190.2 335.939 190.996 336.029 191.849C336.119 192.702 335.914 193.56 335.448 194.28C334.983 194.999 334.285 195.537 333.472 195.803C335.12 201.366 336.705 206.308 338.624 211.295C339.117 212.586 339.634 213.878 340.174 215.17Z" fill="white"/>
<path d="M300.632 364.516L298.637 374.249H285.314C284.094 374.258 282.885 374.026 281.755 373.566C280.625 373.107 279.596 372.428 278.728 371.57C277.577 370.447 276.187 369.602 274.662 369.097C274.733 368.888 274.8 368.674 274.863 368.454L275.931 364.521L300.632 364.516Z" fill="white"/>
<path d="M298.632 374.249L296.681 383.74H253.58C254.1 382.562 254.85 381.501 255.786 380.619C256.723 379.737 257.826 379.053 259.031 378.606L268.925 374.95C270.252 374.458 271.453 373.679 272.444 372.668C273.435 371.657 274.19 370.439 274.657 369.101C276.181 369.606 277.571 370.452 278.722 371.574C279.591 372.433 280.619 373.111 281.749 373.571C282.88 374.03 284.089 374.262 285.308 374.253L298.632 374.249Z" fill="#01082B"/>
<path d="M296.69 383.739L295.799 387.976H252.582L252.867 386.141C252.997 385.313 253.233 384.506 253.571 383.739H296.672H296.69Z" fill="white"/>
<path d="M278.072 269.766C278.756 272.333 278.44 275.065 277.189 277.408C275.938 279.75 273.845 281.528 271.334 282.38C268.824 283.232 266.084 283.094 263.671 281.996C261.258 280.897 259.352 278.919 258.34 276.463C258.177 276.057 258.036 275.643 257.917 275.222C257.55 273.897 257.448 272.513 257.615 271.149C257.782 269.785 258.216 268.467 258.892 267.271C259.568 266.075 260.472 265.025 261.554 264.18C262.635 263.335 263.872 262.711 265.193 262.346C265.655 262.219 266.126 262.124 266.6 262.06C268.189 261.842 269.806 261.995 271.325 262.507" stroke="#01082B" stroke-width="1.08578" stroke-linecap="round" stroke-linejoin="round"/>
<path d="M272.824 257.712C267.952 273.262 268.446 271.686 268.326 272.061L282.937 268.619C282.34 266.077 281.094 263.735 279.321 261.822C277.548 259.91 275.309 258.493 272.824 257.712Z" fill="#F2EDFD"/>
<path d="M242.172 219.693L236.646 224.697C235.897 225.373 234.944 225.779 233.939 225.849L228.207 226.242L226.872 226.331C226.649 226.348 226.427 226.301 226.23 226.197C226.032 226.093 225.868 225.935 225.755 225.743C225.643 225.55 225.586 225.329 225.592 225.106C225.598 224.882 225.667 224.665 225.789 224.479L229.436 218.885L229.695 218.487C229.775 218.371 229.855 218.255 229.94 218.144C230.46 217.454 231.119 216.883 231.874 216.465C232.629 216.047 233.463 215.793 234.322 215.719L242.217 215.018C243.315 214.922 244.422 215.069 245.457 215.449C246.493 215.828 247.433 216.431 248.211 217.215L253.234 222.278C249.62 221.126 245.921 220.262 242.172 219.693Z" fill="white"/>
<path d="M338.626 211.317C336.707 206.33 335.122 201.388 333.474 195.825C334.287 195.559 334.985 195.021 335.45 194.302C335.916 193.582 336.121 192.724 336.031 191.871C335.942 191.019 335.563 190.222 334.958 189.616C334.353 189.009 333.559 188.629 332.708 188.539H332.673C332.006 188.478 331.342 188.675 330.816 189.088C324.875 193.749 315.457 194.164 310.915 188.102C310.352 188.596 309.948 189.247 309.754 189.972C309.56 190.696 309.584 191.462 309.824 192.173C310.95 195.58 311.093 198.303 310.229 201.276C310.127 201.629 310.011 201.991 309.877 202.357C309.82 202.505 309.795 202.664 309.805 202.823C309.816 202.982 309.861 203.137 309.937 203.276C310.013 203.416 310.119 203.537 310.248 203.631C310.376 203.725 310.523 203.79 310.679 203.821L312.015 204.116C312.268 204.172 312.494 204.313 312.657 204.516C312.819 204.719 312.906 204.972 312.905 205.232C312.861 213.165 318.316 212.679 324.176 210.143L325.009 220.014L322.747 220.737L277.174 235.211" stroke="#01082B" stroke-width="1.08578" stroke-linecap="round" stroke-linejoin="round"/>
<path d="M198.698 267.614C195.272 271.777 192.702 276.58 191.138 281.745C189.573 286.909 189.045 292.334 189.583 297.704C190.121 303.075 191.716 308.285 194.274 313.035C196.832 317.784 200.303 321.978 204.487 325.375C224.971 342.001 256.623 335.487 267.925 309.075" stroke="#01082B" stroke-width="4.70089" stroke-miterlimit="10"/>
<path d="M377.786 305.08L367.125 357.583L413.054 352.703L416.318 374.726L416.764 377.784L362.173 383.588L355.939 384.253C353.461 384.515 350.955 384.203 348.616 383.342C346.277 382.48 344.165 381.092 342.445 379.285C340.725 377.477 339.441 375.298 338.692 372.915C337.943 370.532 337.75 368.008 338.127 365.538L338.884 360.587L348.013 304.719" stroke="#01082B" stroke-width="1.08578" stroke-linecap="round" stroke-linejoin="round"/>
<path d="M253.584 383.739C253.247 384.506 253.011 385.313 252.881 386.141L252.596 387.976H295.791L296.681 383.739L298.632 374.256L300.627 364.524" stroke="#01082B" stroke-width="1.08578" stroke-linecap="round" stroke-linejoin="round"/>
<path d="M275.926 364.516L274.857 368.449C274.795 368.67 274.728 368.884 274.657 369.092C274.19 370.43 273.435 371.648 272.444 372.659C271.453 373.671 270.252 374.45 268.925 374.941L259.031 378.597C257.825 379.045 256.721 379.731 255.785 380.614C254.849 381.498 254.099 382.561 253.58 383.74" stroke="#01082B" stroke-width="1.08578" stroke-linecap="round" stroke-linejoin="round"/>
<path d="M253.58 383.731H296.681" stroke="#01082B" stroke-width="1.08578" stroke-linecap="round" stroke-linejoin="round"/>
<path d="M274.662 369.091C276.187 369.596 277.577 370.442 278.728 371.565C279.596 372.423 280.625 373.101 281.755 373.561C282.885 374.02 284.094 374.252 285.314 374.243H298.637" stroke="#01082B" stroke-width="1.08578" stroke-linecap="round" stroke-linejoin="round"/>
<path d="M416.319 374.725L421.796 374.033C422.415 373.868 423.069 373.883 423.68 374.078C426.494 374.85 429.95 378.248 431.94 379.761L440.334 386.159C441.692 387.192 443.301 387.844 444.994 388.047C446.687 388.249 448.404 387.995 449.966 387.311L451.663 386.565L429.224 350.849L424.383 351.407L413.852 352.63L413.055 352.72" stroke="#01082B" stroke-width="1.08578" stroke-linecap="round" stroke-linejoin="round"/>
<path d="M447.567 388.012L424.406 351.569" stroke="#01082B" stroke-width="1.08578" stroke-linecap="round" stroke-linejoin="round"/>
<path d="M423.666 374.079C423.702 373.842 423.755 373.592 423.822 373.289C424.079 372.094 424.098 370.86 423.878 369.658C423.657 368.456 423.203 367.309 422.54 366.284L413.852 352.614" stroke="#01082B" stroke-width="1.08578" stroke-linecap="round" stroke-linejoin="round"/>
<path d="M325.779 267.096C325.137 263.986 323.35 261.234 320.774 259.386C318.865 257.979 317.52 255.935 316.979 253.623C316.439 251.31 316.739 248.88 317.826 246.769C318.542 245.381 318.686 243.767 318.227 242.273L318.129 241.948C318.003 241.539 317.798 241.16 317.525 240.831C317.252 240.503 316.917 240.232 316.539 240.034C316.16 239.836 315.747 239.716 315.322 239.68C314.897 239.643 314.469 239.692 314.063 239.822L289.309 247.751" stroke="#01082B" stroke-width="1.08578" stroke-linecap="round" stroke-linejoin="round"/>
<path d="M363.215 248.046L379.504 242.3" stroke="#01082B" stroke-width="1.08578" stroke-linecap="round" stroke-linejoin="round"/>
<path d="M310.245 201.276C306.683 196.08 304.203 189.222 309.493 183.191C319.641 171.637 330.823 178.726 334.261 180.601C337.699 182.477 346.649 186.294 353.013 179.74C353.903 190.901 350.902 205.187 338.629 211.317" stroke="#01082B" stroke-width="1.08578" stroke-linecap="round" stroke-linejoin="round"/>
<path d="M322.758 220.715C322.758 220.715 318.341 230.76 328.485 227.341C338.629 223.921 342.583 214.394 342.583 214.394" stroke="#01082B" stroke-width="1.08578" stroke-linecap="round" stroke-linejoin="round"/>
<path d="M219.396 273.252L231.054 294.084H207.234C207.229 289.841 208.353 285.673 210.491 282.011C212.629 278.349 215.703 275.325 219.396 273.252Z" fill="#F2EDFD"/>
<path d="M254.848 293.021C254.848 293.374 254.871 293.726 254.871 294.084C254.871 300.418 252.361 306.494 247.893 310.973C243.425 315.452 237.365 317.969 231.047 317.969C224.728 317.969 218.668 315.452 214.201 310.973C209.733 306.494 207.223 300.418 207.223 294.084H231.042L219.384 273.252C222.944 271.247 226.959 270.197 231.042 270.203C231.398 270.203 231.75 270.203 232.102 270.225C238.049 270.488 243.682 272.974 247.892 277.193C252.102 281.413 254.584 287.059 254.848 293.021Z" fill="#01082B"/>
<path d="M290.666 230.92L294.674 246.033" stroke="#01082B" stroke-width="1.08578" stroke-linecap="round" stroke-linejoin="round"/>
<path d="M233.078 218.559L227.738 226.274" stroke="#01082B" stroke-width="1.08578" stroke-linecap="round" stroke-linejoin="round"/>
<path d="M236.149 218.729L231.086 226.041" stroke="#01082B" stroke-width="1.08578" stroke-linecap="round" stroke-linejoin="round"/>
<path d="M239.228 218.898L234.463 225.782" stroke="#01082B" stroke-width="1.08578" stroke-linecap="round" stroke-linejoin="round"/>
<path d="M387.297 280.512C388.27 283.587 388.764 286.794 388.762 290.021C388.764 292.171 388.327 294.3 387.479 296.275C386.631 298.25 385.389 300.031 383.83 301.508C382.271 302.985 380.427 304.127 378.412 304.864C376.397 305.601 374.253 305.917 372.112 305.794L348.012 304.718L319.922 302.901C319.335 302.868 318.756 303.052 318.294 303.417C317.833 303.782 317.52 304.303 317.415 304.883C313.385 327.487 311.804 339.59 304.808 364.515H275.93C278.343 357.184 280.338 350.711 282.084 344.688C287.147 327.197 290.099 313.526 294.922 293.838C295.798 290.267 297.572 286.98 300.076 284.291C302.579 281.603 305.727 279.602 309.221 278.48C310.049 280.909 311.648 282.913 314.948 281.922L316.836 281.373C317.122 281.342 317.405 281.286 317.682 281.204L324.744 279.074L379.722 279.386H379.793C380.047 279.386 380.297 279.386 380.541 279.355H382.18L383.249 278.677C384.112 278.306 384.91 277.8 385.614 277.177L386.086 276.877L387.297 280.512Z" fill="#F2EDFD"/>
<path d="M383.248 278.685L385.613 277.185C384.909 277.808 384.111 278.315 383.248 278.685Z" fill="#F2EDFD"/>
<path d="M324.744 279.075L380.541 279.356C380.296 279.356 380.047 279.387 379.793 279.387H379.722L324.744 279.075Z" fill="#F2EDFD"/>
<path d="M316.837 281.373L314.949 281.922C311.65 282.914 310.051 280.909 309.223 278.48C310.11 278.193 311.016 277.966 311.935 277.802C312.172 278.897 312.803 279.866 313.707 280.525C314.611 281.183 315.725 281.485 316.837 281.373Z" fill="#F2EDFD"/>
<path d="M253.237 222.273L248.21 217.215C247.43 216.43 246.488 215.827 245.45 215.448C244.412 215.069 243.303 214.924 242.203 215.023L234.321 215.719C233.466 215.796 232.636 216.052 231.885 216.469C231.135 216.887 230.479 217.457 229.961 218.143C229.877 218.255 229.796 218.371 229.721 218.487L229.462 218.885L225.811 224.479C225.688 224.665 225.62 224.882 225.614 225.106C225.608 225.329 225.664 225.55 225.777 225.743C225.889 225.935 226.054 226.093 226.251 226.197C226.448 226.301 226.671 226.347 226.893 226.331L228.229 226.242L233.96 225.849C240.288 225.403 236.583 225.282 242.274 219.67C242.644 219.304 243.053 218.916 243.507 218.505" stroke="#01082B" stroke-width="1.08578" stroke-linecap="round" stroke-linejoin="round"/>
<path d="M303.45 281.352C303.097 278.971 302.634 276.63 302.061 274.329" stroke="#01082B" stroke-width="1.08578" stroke-linecap="round" stroke-linejoin="round"/>
<path d="M300.965 270.436C297.465 259.148 291.298 248.875 282.989 240.49C274.679 232.104 264.472 225.855 253.237 222.273C249.66 221.136 246 220.281 242.291 219.715" stroke="#01082B" stroke-width="1.08578" stroke-linecap="round" stroke-linejoin="round"/>
<path d="M229.448 218.884C169.621 220.259 142.346 286.231 166.94 327.103C172.323 337.043 179.928 345.598 189.16 352.099C198.392 358.599 209 362.868 220.152 364.572C231.305 366.275 242.7 365.367 253.443 361.917C264.187 358.467 273.988 352.571 282.079 344.689" stroke="#01082B" stroke-width="1.08578" stroke-linecap="round" stroke-linejoin="round"/>
<path d="M311.933 277.801C311.015 277.966 310.109 278.193 309.221 278.48C305.727 279.602 302.579 281.603 300.076 284.291C297.572 286.98 295.798 290.266 294.922 293.838C290.09 313.526 287.147 327.196 282.084 344.688C280.338 350.711 278.343 357.189 275.93 364.515H304.808C311.804 339.59 313.385 327.487 317.415 304.87C317.52 304.29 317.833 303.768 318.294 303.403C318.756 303.038 319.335 302.855 319.922 302.887L348.012 304.718L372.112 305.807C374.253 305.931 376.397 305.614 378.412 304.877C380.427 304.14 382.271 302.998 383.83 301.521C385.389 300.044 386.631 298.263 387.479 296.288C388.327 294.313 388.764 292.185 388.762 290.034C388.764 286.808 388.27 283.6 387.297 280.525L386.103 276.73" stroke="#01082B" stroke-width="1.08578" stroke-linecap="round" stroke-linejoin="round"/>
<path d="M315.812 199.969C315.615 199.967 315.422 199.907 315.26 199.794C314.921 199.511 314.692 199.119 314.611 198.685C314.529 198.251 314.601 197.802 314.814 197.415C314.884 197.308 314.973 197.216 315.078 197.144C315.183 197.072 315.3 197.022 315.425 196.995C316.044 196.875 316.64 197.419 316.805 198.259C316.97 199.098 316.622 199.835 315.999 199.955C315.937 199.965 315.875 199.969 315.812 199.969Z" fill="#01082B"/>
<path d="M388.107 267.632C388.572 268.963 388.712 270.387 388.516 271.784C388.32 273.181 387.792 274.511 386.978 275.662C386.164 276.813 385.087 277.752 383.837 278.4C382.587 279.048 381.2 279.386 379.793 279.387H379.722L324.744 279.074L315.001 281.972C308.682 283.878 308.548 274.757 308.21 272.9L302.06 274.328L295.559 275.949C295.096 276.079 294.6 276.02 294.181 275.784C293.762 275.548 293.453 275.154 293.323 274.69C293.193 274.226 293.253 273.729 293.488 273.309C293.724 272.888 294.116 272.579 294.579 272.449L300.978 270.435L310.022 267.583C311.15 267.226 312.326 267.046 313.509 267.051L325.764 267.096H327.416L369.431 265.516L363.197 248.037L379.49 242.3L388.107 267.632Z" fill="white"/>
<path d="M359.555 237.8L363.211 248.046L369.445 265.529L327.43 267.105H325.778L313.523 267.056C312.341 267.051 311.164 267.231 310.037 267.587L300.975 270.44L294.589 272.454C294.126 272.584 293.733 272.893 293.498 273.313C293.262 273.734 293.203 274.231 293.333 274.695C293.463 275.159 293.771 275.552 294.191 275.788C294.61 276.025 295.106 276.084 295.568 275.954L302.07 274.333L308.166 272.855C308.358 273.9 308.5 276.351 309.231 278.485C310.059 280.914 311.657 282.918 314.957 281.927L316.845 281.378L324.754 279.079L379.732 279.391H379.803C380.057 279.391 380.306 279.391 380.551 279.36C382.432 279.207 384.212 278.446 385.623 277.19C385.792 277.043 385.953 276.887 386.113 276.722C387.26 275.546 388.056 274.072 388.41 272.466C388.764 270.86 388.663 269.187 388.117 267.636L379.487 242.301L372.656 222.126C371.198 217.958 368.179 214.523 364.237 212.549C360.296 210.575 355.743 210.218 351.544 211.554L342.58 214.406L340.171 215.17C339.627 213.875 339.112 212.591 338.625 211.317" stroke="#01082B" stroke-width="1.08578" stroke-linecap="round" stroke-linejoin="round"/>
<path d="M308.158 272.85L311.547 272.083" stroke="#01082B" stroke-width="1.08578" stroke-linecap="round" stroke-linejoin="round"/>
<path d="M308.658 276.28L311.744 275.602" stroke="#01082B" stroke-width="1.08578" stroke-linecap="round" stroke-linejoin="round"/>
<path d="M309.623 279.476L312.072 278.94" stroke="#01082B" stroke-width="1.08578" stroke-linecap="round" stroke-linejoin="round"/>
<path d="M92.0861 223.884C87.8533 225.02 83.4782 226.25 78.7844 227.646C78.5833 226.554 78.3478 225.458 78.0879 224.342C83.3899 224.15 88.1623 223.973 92.0861 223.884Z" fill="#C4F0E9"/>
<path d="M61.185 199.942C53.9259 199.74 48.2707 198.722 43.1992 197.901C44.5382 190.073 46.1764 182.52 48.104 173.806C48.6568 171.319 49.8552 169.022 51.5777 167.149C53.3003 165.275 55.4859 163.89 57.9135 163.136C63.0978 161.533 67.9143 160.141 72.6621 158.917L72.5885 159.069L80.9708 175.099L88.0778 164.449L100.129 168.933L91.7858 154.85C95.2829 154.265 98.9271 153.729 102.821 153.237C107.806 152.604 112.864 153.501 117.33 155.809C125.074 159.816 131.127 163.185 137.111 166.661C133.765 172.854 130.894 179.293 128.522 185.922C125.089 184.137 121.631 182.195 117.555 179.854C122.22 191.44 126.261 202.843 129.871 214.487C121.916 216.454 114.975 218.121 108.29 219.754L105.838 216.365C105.838 216.365 112.116 217.718 112.415 214.866C112.616 212.958 88.8723 210.72 73.1771 209.457C69.8713 201.215 66.6391 194.149 63.2155 185.313C62.4602 190.766 61.9158 195.221 61.185 199.942Z" fill="#C4F0E9"/>
<path d="M191.844 130.263C192.764 131.612 193.131 133.263 192.869 134.876C192.378 139.262 167.521 175.365 157.29 190.073C156.047 191.859 154.242 193.177 152.164 193.815C150.087 194.453 147.856 194.375 145.827 193.593C139.916 191.376 134.138 188.817 128.523 185.927C130.895 179.298 133.766 172.859 137.112 166.666C140.785 168.81 144.43 171.013 148.427 173.452C148.524 173.508 148.637 173.53 148.747 173.513C148.858 173.496 148.96 173.441 149.035 173.359L169.002 150.739C170.573 148.972 171.446 146.689 171.455 144.322C171.455 140.944 171.362 138.17 171.087 134.787C171.067 134.542 171.128 134.297 171.26 134.089C171.393 133.881 171.589 133.722 171.819 133.637C172.049 133.551 172.301 133.543 172.537 133.614C172.772 133.685 172.977 133.831 173.122 134.03C174.22 135.53 175.085 137.188 175.688 138.947C175.739 139.101 175.832 139.237 175.955 139.342C176.078 139.446 176.228 139.515 176.387 139.541C176.547 139.567 176.71 139.548 176.86 139.488C177.01 139.428 177.14 139.327 177.237 139.198L185.399 128.414C185.669 128.057 186.041 127.79 186.466 127.647C186.89 127.505 187.347 127.495 187.778 127.618C188.305 127.763 188.819 127.954 189.313 128.188C190.318 128.655 191.188 129.369 191.844 130.263Z" fill="white"/>
<path d="M145.084 276.22C146.43 283.061 145.456 290.158 142.318 296.381C129.928 320.908 119.79 343.449 113.311 359.622L109.019 357.08L88.8265 345.111H88.7971C99.2246 324.95 108.455 307.44 117.397 291.06C118.93 288.256 119.316 284.964 118.476 281.879C114.135 265.938 110.628 252.513 107.636 240.023C105.341 259.894 103.678 273.343 100.99 290.224C100.426 293.754 98.5869 296.953 95.8233 299.213C93.0596 301.472 89.564 302.634 86.0014 302.478C62.2427 301.46 43.0798 302.306 26.9824 307.174L27.2179 302.188L28.3263 278.698V278.659C46.0178 278.496 60.6389 278.457 76.2851 278.6C76.7052 278.603 77.1111 278.447 77.4207 278.162C77.7302 277.877 77.9204 277.485 77.9527 277.065C77.9527 277.065 79.6448 259.073 79.9685 249.809C80.2677 241.14 80.0961 234.516 78.811 227.646C83.5049 226.25 87.8799 225.021 92.1127 223.885C94.6191 223.831 96.7673 223.811 98.4889 223.84C99.8154 223.865 101.097 224.328 102.133 225.158L108.916 230.567C109.689 231.182 110.601 231.596 111.571 231.772C112.542 231.948 113.54 231.88 114.478 231.575L122.395 228.994C122.575 228.933 122.741 228.835 122.881 228.707C123.021 228.578 123.133 228.421 123.209 228.246C123.288 228.073 123.328 227.884 123.328 227.693C123.328 227.502 123.288 227.314 123.209 227.14C123.047 226.797 122.785 226.512 122.457 226.322C122.129 226.132 121.752 226.047 121.375 226.078L114.42 226.638C114.104 226.664 113.787 226.608 113.499 226.476C113.211 226.343 112.962 226.138 112.776 225.881L108.362 219.764C115.028 218.131 121.968 216.479 129.943 214.498C135.853 233.788 140.645 253.738 145.084 276.22Z" fill="#01082B"/>
<path opacity="0.15" d="M129.987 406.811C189.4 406.811 237.565 396.961 237.565 384.811C237.565 372.661 189.4 362.811 129.987 362.811C70.5727 362.811 22.4082 372.661 22.4082 384.811C22.4082 396.961 70.5727 406.811 129.987 406.811Z" fill="#BABABA"/>
<path d="M91.7889 154.85L100.156 168.919L88.1055 164.434C90.3764 159.91 90.7982 157.25 90.3764 152.475L91.7889 154.85Z" fill="#C4F0E9"/>
<path d="M90.3754 152.475C90.7972 157.25 90.3754 159.91 88.1045 164.434C81.7528 162.738 78.3588 159.487 75.7788 152.633L74.3516 144.229C77.2699 148.655 82.3267 153.724 89.8114 152.564C90.0027 152.544 90.189 152.51 90.3754 152.475Z" fill="white"/>
<path d="M91.4266 111.366C92.3027 111.889 93.0282 112.631 93.5321 113.52C94.0359 114.409 94.3008 115.413 94.3008 116.436C94.3021 118.076 93.6699 119.652 92.5369 120.835C91.404 122.017 89.8582 122.714 88.2238 122.779C85.9137 122.872 83.1621 123.064 78.8459 122.917C78.1828 122.893 77.5248 123.041 76.9353 123.346C76.3458 123.652 75.8445 124.104 75.4799 124.66C75.1153 125.215 74.8995 125.856 74.8533 126.52C74.8072 127.183 74.9322 127.848 75.2164 128.449L77.2323 132.722C77.1146 132.653 72.6365 130.067 70.3362 131.134L68.1487 125.297C67.539 123.672 67.5527 121.878 68.187 120.263C68.8214 118.648 70.0311 117.326 71.582 116.554C76.6878 114.002 82.1419 113.112 85.6145 111.248C86.5106 110.762 87.5173 110.517 88.5361 110.537C89.5549 110.558 90.5509 110.844 91.4266 111.366Z" fill="#01082B"/>
<path d="M16.3606 307.026C13.0499 311.879 9.49394 320.548 5.60938 320.268L9.87161 278.854C16.4391 278.776 22.5406 278.712 28.3086 278.658V278.697L27.2148 302.192C25.6075 302.223 24.0072 302.414 22.4376 302.762C21.0006 303.056 19.6447 303.66 18.4648 304.533C17.6509 305.261 16.9427 306.1 16.3606 307.026Z" fill="white"/>
<path d="M114.835 384.7L113.633 386.667C113.461 386.952 113.233 387.199 112.962 387.393C112.692 387.587 112.385 387.724 112.06 387.795C111.735 387.866 111.399 387.871 111.073 387.808C110.746 387.745 110.436 387.616 110.161 387.429L77.7205 365.655C77.3715 365.423 77.123 365.067 77.0248 364.658C76.9266 364.25 76.9859 363.819 77.1908 363.452L77.9314 362.115C78.0433 361.911 78.1966 361.733 78.3814 361.592C78.5662 361.451 78.7785 361.35 79.0044 361.296C79.2304 361.243 79.465 361.237 79.6933 361.28C79.9216 361.322 80.1384 361.413 80.3298 361.545L114.835 384.7Z" fill="#01082B"/>
<path d="M8.24932 276.991C8.48165 276.995 8.71045 277.049 8.92105 277.147C9.13165 277.246 9.3194 277.387 9.47226 277.563C9.62511 277.738 9.7397 277.944 9.80868 278.166C9.87766 278.389 9.89949 278.623 9.87279 278.854L5.61056 320.268L3.31022 320.121C2.97802 320.101 2.65321 320.014 2.35558 319.865C2.05795 319.716 1.79373 319.508 1.57898 319.253C1.36424 318.998 1.20348 318.702 1.10649 318.383C1.0095 318.064 0.978298 317.728 1.0148 317.396L5.02689 278.461C5.07126 278.04 5.27292 277.651 5.59134 277.373C5.90977 277.095 6.3214 276.948 6.74356 276.961L8.24932 276.991Z" fill="#01082B"/>
<path d="M88.1045 164.435L80.9975 175.086L72.6152 159.055L72.6888 158.903L75.7788 152.638C78.3538 159.488 81.7528 162.738 88.1045 164.435Z" fill="#C4F0E9"/>
<path d="M77.2275 132.723L75.2116 128.449C74.9274 127.848 74.8024 127.184 74.8485 126.52C74.8947 125.857 75.1105 125.216 75.4751 124.66C75.8397 124.105 76.341 123.652 76.9305 123.347C77.52 123.042 78.178 122.894 78.8411 122.917C83.1573 123.065 85.9089 122.873 88.219 122.78C89.4528 122.734 90.6463 122.327 91.6524 121.609C93.0845 125.273 93.9134 131.351 94.3647 136.056C90.8185 136.342 86.5171 137.409 81.6908 139.061C81.4212 139.151 81.1332 139.17 80.8542 139.117C80.5751 139.063 80.3143 138.939 80.0967 138.756C78.8919 137.721 77.8327 136.526 76.9479 135.206L73.1663 137.173L73.1124 136.858C73.1124 136.858 67.8839 135.756 69.2572 132.305C69.4535 131.785 69.8442 131.364 70.3461 131.129C72.6317 130.067 77.1097 132.654 77.2275 132.723ZM90.7695 130.893C91.1619 130.829 91.3826 130.234 91.26 129.566C91.1374 128.897 90.7695 128.41 90.3575 128.479C89.9455 128.548 89.7444 129.133 89.867 129.802C89.9896 130.47 90.382 130.957 90.7695 130.893ZM82.2352 132.742C82.6227 132.673 82.8483 132.083 82.7257 131.414C82.6031 130.746 82.2107 130.259 81.8281 130.323C81.4455 130.387 81.215 130.982 81.3376 131.651C81.4603 132.319 81.8477 132.806 82.2352 132.742Z" fill="white"/>
<path d="M43.1909 197.891C48.2624 198.712 53.9176 199.73 61.1766 199.932C60.7548 202.607 60.2693 205.341 59.6464 208.434C59.6464 208.434 65.4487 208.822 73.208 209.452C88.9032 210.725 112.642 212.963 112.446 214.861C112.147 217.713 105.869 216.361 105.869 216.361L108.321 219.749L112.735 225.866C112.921 226.123 113.17 226.327 113.458 226.46C113.746 226.593 114.063 226.649 114.379 226.623L121.334 226.062C121.711 226.032 122.088 226.117 122.416 226.307C122.744 226.497 123.006 226.782 123.168 227.125C123.247 227.298 123.287 227.487 123.287 227.678C123.287 227.869 123.247 228.057 123.168 228.231C123.092 228.406 122.98 228.563 122.84 228.691C122.7 228.82 122.534 228.918 122.354 228.978L114.437 231.56C113.499 231.865 112.501 231.932 111.53 231.756C110.56 231.581 109.648 231.167 108.875 230.552L102.092 225.143C101.058 224.321 99.7823 223.863 98.4626 223.84C96.7607 223.81 94.6124 223.84 92.0864 223.884C88.1626 223.973 83.3756 224.15 78.0833 224.341C69.8728 224.646 60.4556 224.99 51.1955 225.143C49.7583 225.167 48.3325 224.884 47.0127 224.313C45.6929 223.742 44.5093 222.896 43.5403 221.832C42.5714 220.767 41.8393 219.509 41.3926 218.139C40.9459 216.769 40.7948 215.32 40.9494 213.887C41.5674 208.178 42.3227 202.981 43.1909 197.891Z" fill="white"/>
<path d="M94.3527 136.056C94.4704 136.262 102.352 150.163 90.3749 152.475C90.1885 152.509 90.0021 152.543 89.8109 152.568C82.3262 153.729 77.2694 148.669 74.3511 144.233L73.1543 137.182L76.9359 135.215C77.8207 136.535 78.8799 137.73 80.0847 138.765C80.3023 138.948 80.5631 139.072 80.8421 139.126C81.1212 139.179 81.4092 139.16 81.6788 139.07C86.5296 137.408 90.8065 136.341 94.3527 136.056Z" fill="#01082B"/>
<path d="M106.913 365.36C106.93 365.552 106.958 365.742 106.996 365.931C107.252 366.999 107.657 368.025 108.198 368.979C110.925 374.182 116.909 381.376 114.834 384.715L80.3145 361.535C83.2279 355.86 86.0497 350.387 88.7801 345.116H88.8095L109.002 357.084C108.284 358.518 107.708 360.018 107.281 361.564C106.937 362.798 106.812 364.083 106.913 365.36Z" fill="white"/>
<path d="M82.953 131.38C83.0952 132.25 82.8009 133.022 82.3006 133.106C81.8004 133.189 81.2706 132.555 81.1235 131.685C80.9764 130.814 81.2755 130.042 81.7758 129.959C82.2761 129.875 82.8058 130.509 82.953 131.38Z" fill="#01082B"/>
<path d="M91.4903 129.531C91.6325 130.401 91.3431 131.173 90.8379 131.257C90.3328 131.341 89.803 130.706 89.6608 129.836C89.5186 128.966 89.8128 128.193 90.318 128.11C90.8232 128.026 91.348 128.666 91.4903 129.531Z" fill="#01082B"/>
<path d="M117.559 179.86C121.635 182.2 125.087 184.143 128.526 185.928C134.141 188.817 139.918 191.377 145.83 193.594C147.858 194.376 150.089 194.454 152.167 193.816C154.244 193.177 156.049 191.86 157.292 190.073C167.523 175.355 192.376 139.262 192.871 134.876C193.133 133.264 192.766 131.612 191.846 130.264C191.182 129.374 190.305 128.667 189.296 128.208C188.801 127.974 188.288 127.783 187.76 127.638C187.33 127.515 186.873 127.525 186.448 127.667C186.024 127.81 185.652 128.077 185.382 128.434L177.22 139.218C177.123 139.347 176.992 139.448 176.843 139.508C176.693 139.568 176.529 139.587 176.37 139.561C176.21 139.535 176.061 139.466 175.938 139.362C175.814 139.257 175.722 139.121 175.67 138.967C175.067 137.208 174.203 135.55 173.105 134.05C172.963 133.846 172.759 133.694 172.522 133.619C172.286 133.543 172.032 133.548 171.798 133.632C171.565 133.716 171.366 133.874 171.231 134.083C171.097 134.292 171.035 134.54 171.055 134.788C171.33 138.171 171.423 140.944 171.423 144.322C171.414 146.69 170.541 148.972 168.97 150.739L149.003 173.359C148.928 173.442 148.826 173.496 148.715 173.513C148.605 173.53 148.492 173.509 148.395 173.452C144.398 170.994 140.753 168.81 137.08 166.667C131.096 163.17 125.043 159.822 117.299 155.814C112.845 153.508 107.799 152.606 102.825 153.228C98.9304 153.719 95.2862 154.255 91.7891 154.84" stroke="#01082B" stroke-width="1.12228" stroke-linecap="round" stroke-linejoin="round"/>
<path d="M9.87305 278.854C16.4405 278.775 22.542 278.712 28.31 278.657C46.0015 278.495 60.6226 278.456 76.2688 278.598C76.6889 278.602 77.0948 278.446 77.4044 278.161C77.7139 277.876 77.9041 277.484 77.9364 277.064C77.9364 277.064 79.6285 259.072 79.9522 249.808C80.2514 241.138 80.0798 234.515 78.7947 227.645C78.5936 226.554 78.3582 225.457 78.0982 224.341" stroke="#01082B" stroke-width="1.12228" stroke-linecap="round" stroke-linejoin="round"/>
<path d="M73.208 209.452C69.9022 201.21 66.67 194.144 63.2465 185.308C62.4617 190.766 61.9173 195.221 61.1766 199.932C60.7548 202.607 60.2693 205.341 59.6464 208.434C59.6464 208.434 65.4487 208.822 73.208 209.452ZM73.208 209.452C88.9032 210.725 112.642 212.963 112.446 214.861C112.147 217.713 105.869 216.361 105.869 216.361L108.321 219.749L112.735 225.866C112.921 226.123 113.17 226.328 113.458 226.46C113.746 226.593 114.063 226.649 114.379 226.623L121.334 226.062C121.711 226.032 122.088 226.117 122.416 226.307C122.744 226.497 123.006 226.782 123.168 227.125C123.247 227.298 123.287 227.487 123.287 227.678C123.287 227.869 123.247 228.057 123.168 228.231C123.092 228.406 122.98 228.563 122.84 228.691C122.7 228.82 122.534 228.918 122.354 228.978L114.437 231.56C113.499 231.865 112.501 231.932 111.53 231.757C110.56 231.581 109.648 231.167 108.875 230.552L102.092 225.143C101.058 224.321 99.7823 223.863 98.4626 223.84C96.7607 223.81 94.6124 223.84 92.0864 223.884C88.1626 223.973 83.3756 224.15 78.0833 224.341C69.8728 224.646 60.4556 224.99 51.1955 225.143C49.7583 225.167 48.3325 224.884 47.0127 224.313C45.6929 223.742 44.5093 222.896 43.5403 221.832C42.5714 220.767 41.8393 219.509 41.3926 218.139C40.9459 216.769 40.7948 215.32 40.9494 213.887C41.5625 208.178 42.308 202.981 43.1762 197.891C44.5152 190.063 46.1534 182.51 48.0809 173.796C48.6338 171.309 49.8321 169.013 51.5547 167.139C53.2772 165.265 55.4629 163.881 57.8905 163.126C63.0748 161.523 67.8913 160.131 72.6391 158.907" stroke="#01082B" stroke-width="1.12228" stroke-linecap="round" stroke-linejoin="round"/>
<path d="M94.3527 136.056C90.8065 136.341 86.5051 137.408 81.6788 139.06C81.4092 139.15 81.1212 139.169 80.8421 139.116C80.5631 139.063 80.3023 138.938 80.0847 138.755C78.8799 137.72 77.8207 136.526 76.9359 135.205L73.1543 137.172" stroke="#01082B" stroke-width="1.12228" stroke-linecap="round" stroke-linejoin="round"/>
<path d="M91.6387 121.609C93.0709 125.273 93.8998 131.351 94.351 136.056" stroke="#01082B" stroke-width="1.12228" stroke-linecap="round" stroke-linejoin="round"/>
<path d="M94.3532 136.057C94.4709 136.263 102.353 150.164 90.3754 152.476C90.189 152.51 90.0027 152.544 89.8114 152.569C82.3267 153.729 77.2699 148.67 74.3516 144.234" stroke="#01082B" stroke-width="1.12228" stroke-linecap="round" stroke-linejoin="round"/>
<path d="M86.6914 128.892C86.9759 132.005 87.7754 133.554 89.2713 135.235C89.3621 135.336 89.4287 135.456 89.4661 135.587C89.5036 135.717 89.5107 135.854 89.4871 135.988C89.4585 136.125 89.3996 136.254 89.3147 136.366C89.2299 136.477 89.1212 136.568 88.9966 136.632C88.3952 136.946 87.7644 137.2 87.1132 137.389" stroke="#01082B" stroke-width="1.12228" stroke-linecap="round" stroke-linejoin="round"/>
<path d="M77.2285 132.722C77.1108 132.653 72.6327 130.067 70.3324 131.134C69.8305 131.368 69.4398 131.79 69.2436 132.309C67.8702 135.751 73.0987 136.862 73.0987 136.862L73.1526 137.177L74.3494 144.229L75.7767 152.632L72.6867 158.897L72.6131 159.049L80.9954 175.08L88.1024 164.429L100.153 168.913L91.7858 154.85L90.3733 152.475C90.7951 157.25 90.3733 159.91 88.1024 164.434" stroke="#01082B" stroke-width="1.12228" stroke-linecap="round" stroke-linejoin="round"/>
<path d="M70.3362 131.134L68.1487 125.297C67.539 123.672 67.5527 121.879 68.187 120.263C68.8214 118.648 70.0311 117.326 71.582 116.554C76.6878 114.002 82.1419 113.112 85.6145 111.248C86.5109 110.762 87.5178 110.518 88.5368 110.539C89.5557 110.56 90.5517 110.846 91.4273 111.369C92.3029 111.892 93.028 112.634 93.5317 113.522C94.0354 114.41 94.3004 115.414 94.3008 116.436C94.3021 118.076 93.6699 119.653 92.5369 120.835C91.404 122.018 89.8582 122.715 88.2238 122.78C85.9137 122.873 83.1621 123.065 78.8459 122.917C78.1828 122.894 77.5248 123.042 76.9353 123.347C76.3458 123.652 75.8445 124.104 75.4799 124.66C75.1153 125.216 74.8995 125.856 74.8533 126.52C74.8072 127.184 74.9322 127.848 75.2164 128.449L77.2323 132.722" stroke="#01082B" stroke-width="1.12228" stroke-linecap="round" stroke-linejoin="round"/>
<path d="M75.7773 152.638C78.3572 159.488 81.7513 162.738 88.103 164.44" stroke="#01082B" stroke-width="1.12228" stroke-linecap="round" stroke-linejoin="round"/>
<path d="M115.196 174.111C116.001 176.032 116.787 177.948 117.555 179.859C122.22 191.444 126.261 202.848 129.871 214.492C135.85 233.787 140.637 253.737 145.076 276.219C146.422 283.06 145.448 290.157 142.31 296.38C129.92 320.907 119.782 343.448 113.303 359.621L109.011 357.079L88.8184 345.11" stroke="#01082B" stroke-width="1.12228" stroke-linecap="round" stroke-linejoin="round"/>
<path d="M28.3272 278.697L27.2335 302.192L26.998 307.178C43.0955 302.31 62.2584 301.464 86.017 302.482C89.5796 302.638 93.0752 301.476 95.8389 299.217C98.6025 296.957 100.441 293.758 101.006 290.228C103.694 273.347 105.356 259.898 107.652 240.027C110.663 252.517 114.151 265.942 118.491 281.884C119.332 284.968 118.945 288.26 117.412 291.064C108.471 307.444 99.2648 324.959 88.8127 345.115C86.0824 350.396 83.2605 355.869 80.3471 361.534" stroke="#01082B" stroke-width="1.12228" stroke-linecap="round" stroke-linejoin="round"/>
<path d="M109.018 357.099C108.299 358.532 107.723 360.033 107.296 361.579C106.949 362.807 106.819 364.087 106.914 365.36C106.931 365.552 106.959 365.742 106.997 365.931C107.253 366.998 107.657 368.025 108.199 368.979C110.926 374.182 116.909 381.376 114.835 384.715L113.633 386.682C113.461 386.967 113.233 387.214 112.962 387.408C112.692 387.602 112.385 387.738 112.06 387.81C111.735 387.881 111.399 387.885 111.073 387.822C110.746 387.76 110.436 387.631 110.161 387.444L77.7205 365.655C77.3715 365.423 77.123 365.066 77.0248 364.658C76.9266 364.249 76.9859 363.819 77.1908 363.452L77.9314 362.115C78.0433 361.911 78.1966 361.733 78.3814 361.592C78.5662 361.451 78.7785 361.35 79.0044 361.296C79.2304 361.243 79.465 361.237 79.6933 361.28C79.9216 361.322 80.1384 361.413 80.3298 361.544L114.835 384.71" stroke="#01082B" stroke-width="1.12228" stroke-linecap="round" stroke-linejoin="round"/>
<path d="M104.102 361.067L107.295 361.578" stroke="#01082B" stroke-width="1.12228" stroke-linecap="round" stroke-linejoin="round"/>
<path d="M103.656 365.335L106.913 365.36" stroke="#01082B" stroke-width="1.12228" stroke-linecap="round" stroke-linejoin="round"/>
<path d="M105.115 369.923L108.195 368.979" stroke="#01082B" stroke-width="1.12228" stroke-linecap="round" stroke-linejoin="round"/>
<path d="M27.216 302.192C25.6087 302.223 24.0084 302.414 22.4388 302.762C21.0018 303.056 19.6459 303.66 18.4659 304.533C17.6452 305.26 16.9303 306.099 16.3422 307.026C13.0315 311.879 9.47551 320.548 5.59094 320.268L3.31022 320.121C2.97802 320.101 2.65321 320.014 2.35558 319.865C2.05795 319.716 1.79373 319.508 1.57898 319.253C1.36424 318.998 1.20348 318.702 1.10649 318.383C1.0095 318.064 0.978298 317.728 1.0148 317.396L5.02689 278.461C5.07126 278.04 5.27292 277.651 5.59134 277.373C5.90977 277.095 6.3214 276.948 6.74355 276.961L8.26894 276.991C8.50127 276.995 8.73007 277.049 8.94067 277.147C9.15127 277.246 9.33902 277.387 9.49187 277.563C9.64473 277.738 9.75932 277.944 9.8283 278.166C9.89727 278.389 9.91911 278.623 9.89241 278.854L5.61056 320.268" stroke="#01082B" stroke-width="1.12228" stroke-linecap="round" stroke-linejoin="round"/>
<path d="M21.4121 299.694L22.4581 302.763" stroke="#01082B" stroke-width="1.12228" stroke-linecap="round" stroke-linejoin="round"/>
<path d="M17.4453 301.297L18.9413 304.194" stroke="#01082B" stroke-width="1.12228" stroke-linecap="round" stroke-linejoin="round"/>
<path d="M14.084 304.74L16.3598 307.026" stroke="#01082B" stroke-width="1.12228" stroke-linecap="round" stroke-linejoin="round"/>
<path d="M43.1895 197.891C48.261 198.712 53.9162 199.73 61.1752 199.932" stroke="#01082B" stroke-width="1.12228" stroke-linecap="round" stroke-linejoin="round"/>
<path d="M137.112 166.662C133.766 172.855 130.895 179.294 128.523 185.923" stroke="#01082B" stroke-width="1.12228" stroke-linecap="round" stroke-linejoin="round"/>
<path d="M78.8008 227.646C83.4946 226.25 87.8697 225.02 92.1025 223.884" stroke="#01082B" stroke-width="1.12228" stroke-linecap="round" stroke-linejoin="round"/>
<path d="M108.311 219.759C114.976 218.126 121.916 216.474 129.891 214.492" stroke="#01082B" stroke-width="1.12228" stroke-linecap="round" stroke-linejoin="round"/>
<path d="M180.859 140.625C180.859 140.625 185.617 133.829 189.296 128.208" stroke="#01082B" stroke-width="1.12228" stroke-linecap="round" stroke-linejoin="round"/>
<path d="M183.111 143.133C183.111 143.133 188.134 135.963 191.847 130.264" stroke="#01082B" stroke-width="1.12228" stroke-linecap="round" stroke-linejoin="round"/>
<defs>
<linearGradient id="paint0_linear_7806_83958" x1="226.86" y1="0" x2="226.86" y2="440" gradientUnits="userSpaceOnUse">
<stop stop-color="#BABABA"/>
<stop offset="1" stop-color="#BABABA" stop-opacity="0"/>
</linearGradient>
<linearGradient id="paint1_linear_7806_83958" x1="226.858" y1="71.9023" x2="226.858" y2="368.097" gradientUnits="userSpaceOnUse">
<stop stop-color="#BABABA"/>
<stop offset="1" stop-color="#BABABA" stop-opacity="0"/>
</linearGradient>
</defs>
</svg>
