<svg width="398" height="442" viewBox="0 0 398 442" fill="none" xmlns="http://www.w3.org/2000/svg">
<path d="M352.692 111.7C349.309 113.068 345.597 112.337 342.996 110.119L349.459 107.505C349.854 107.346 350.044 106.896 349.885 106.501L349.371 105.229C349.211 104.834 348.762 104.643 348.367 104.803L341.027 107.772C340.782 107.36 340.552 106.927 340.366 106.467C340.18 106.008 340.045 105.536 339.935 105.07L347.275 102.101C347.67 101.941 347.861 101.491 347.701 101.096L347.187 99.8243C347.028 99.4292 346.578 99.2384 346.183 99.3982L339.721 102.012C340.05 98.6089 342.206 95.5049 345.595 94.1339C347.776 93.2518 350.09 93.2433 352.155 93.9408L353.589 90.5864C350.664 89.5294 347.343 89.4969 344.231 90.7559C338.944 92.8944 335.821 98.0953 336.061 103.492L332.016 105.129C331.621 105.288 331.43 105.738 331.59 106.133L332.104 107.405C332.263 107.8 332.713 107.991 333.108 107.831L336.525 106.449C336.651 106.916 336.804 107.373 336.99 107.833C337.175 108.292 337.383 108.727 337.617 109.151L334.199 110.533C333.805 110.693 333.614 111.143 333.773 111.538L334.287 112.81C334.447 113.205 334.896 113.395 335.291 113.236L339.337 111.6C342.912 115.647 348.77 117.216 354.057 115.078C357.17 113.819 359.535 111.486 360.904 108.693L357.541 107.27C356.54 109.208 354.873 110.817 352.692 111.7Z" fill="#01082B"/>
<path d="M382.246 89.0903C390.658 109.913 380.608 133.617 359.797 142.034C338.987 150.451 315.297 140.395 306.884 119.572C298.471 98.7497 308.522 75.0461 329.332 66.6288C350.143 58.2114 373.833 68.2676 382.246 89.0903Z" stroke="#01082B" stroke-width="0.8"/>
<path d="M374.998 92.0222C381.792 108.84 373.675 127.984 356.867 134.782C340.06 141.58 320.926 133.459 314.132 116.641C307.337 99.8236 315.455 80.6794 332.262 73.8812C349.07 67.0829 368.203 75.2048 374.998 92.0222Z" stroke="#01082B" stroke-width="0.8"/>
<path d="M247.044 298.22C248.632 297.308 249.888 295.812 250.435 293.914C251.479 290.298 249.584 286.549 246.187 285.14L246.661 283.496C246.91 282.632 246.412 281.728 245.548 281.479C244.685 281.229 243.781 281.728 243.532 282.592L243.08 284.158L239.951 283.254L240.403 281.688C240.652 280.824 240.153 279.92 239.29 279.671C238.426 279.421 237.523 279.92 237.273 280.784L236.822 282.35L235.257 281.898C234.393 281.648 233.49 282.147 233.241 283.012L226.917 304.929C226.667 305.793 227.166 306.697 228.03 306.947L229.594 307.398L229.143 308.964C228.893 309.828 229.392 310.732 230.256 310.981C231.119 311.231 232.023 310.732 232.272 309.868L232.724 308.302L235.853 309.206L235.401 310.772C235.152 311.636 235.651 312.54 236.514 312.789C237.378 313.039 238.281 312.54 238.531 311.676L238.982 310.11L239.765 310.336C243.645 311.457 247.717 309.211 248.838 305.325C249.591 302.717 248.801 300.05 247.044 298.22ZM235.918 285.481L244.524 287.967C246.68 288.59 247.929 290.853 247.306 293.01C246.684 295.168 244.421 296.417 242.265 295.794L233.66 293.309L235.918 285.481ZM240.668 307.205L230.498 304.267L232.756 296.44L241.362 298.925L242.926 299.377C245.083 300 246.331 302.264 245.709 304.421C245.086 306.578 242.824 307.828 240.668 307.205Z" fill="#01082B"/>
<path d="M279.365 308.548C273.139 330.126 250.609 342.569 229.043 336.339C207.478 330.11 195.042 307.567 201.268 285.989C207.494 264.41 230.024 251.968 251.59 258.197C273.155 264.427 285.591 286.969 279.365 308.548Z" stroke="#01082B" stroke-width="0.8"/>
<path d="M271.853 306.378C266.825 323.806 248.628 333.855 231.211 328.824C213.793 323.793 203.75 305.586 208.778 288.159C213.807 270.731 232.003 260.681 249.42 265.713C266.838 270.744 276.882 288.95 271.853 306.378Z" stroke="#01082B" stroke-width="0.8"/>
<path d="M67.0239 261.241C65.7498 262.281 64.4151 263.245 63.0268 264.128C55.6396 268.807 46.9318 270.964 38.2121 270.276C29.4924 269.587 21.2321 266.089 14.6726 260.309C8.1132 254.528 3.60908 246.777 1.83729 238.22C0.0655073 229.663 1.12178 220.762 4.84736 212.856C8.57293 204.951 14.7665 198.466 22.4971 194.378C30.2278 190.29 39.0777 188.819 47.7169 190.187C56.356 191.554 64.3175 195.686 70.4046 201.961C76.4918 208.236 80.3757 216.315 81.4727 224.984" stroke="#01082B" stroke-width="0.798492" stroke-linecap="round" stroke-linejoin="round"/>
<path d="M64.5212 254.512C62.9531 255.985 61.2491 257.307 59.4319 258.46C53.1069 262.46 45.6281 264.24 38.1771 263.52C30.7261 262.8 23.7277 259.62 18.2875 254.483C12.8473 249.346 9.27544 242.545 8.13624 235.154C6.99704 227.763 8.35545 220.203 11.9968 213.669C15.6382 207.135 21.355 201.999 28.2441 199.073C35.1331 196.148 42.8016 195.598 50.0381 197.512C57.2746 199.426 63.6664 203.694 68.2039 209.642C72.7414 215.59 75.1659 222.878 75.0942 230.356" stroke="#01082B" stroke-width="0.798492" stroke-linecap="round" stroke-linejoin="round"/>
<path d="M33.182 227.009L33.1813 227.009C31.4129 227.404 29.9844 228.588 28.9026 230.611L28.9027 230.611L28.8996 230.617C28.3853 231.523 28.0785 232.532 28.0012 233.57C27.924 234.608 28.0779 235.65 28.4518 236.621C29.3467 238.794 30.9717 240.587 33.047 241.691L33.2661 241.808L33.1511 242.028L31.9394 244.345L33.7727 245.31L35.0216 242.932L35.1269 242.732L35.3368 242.817C38.637 244.154 42.2694 244.434 45.7324 243.621L44.8757 239.658C42.35 240.29 39.697 240.215 37.2087 239.438L36.9219 239.348L37.062 239.083L40.6951 232.195L40.7871 232.021L40.9782 232.07C43.9819 232.839 46.342 233.018 48.0765 232.643C49.776 232.276 51.1638 231.118 52.2161 229.119L52.216 229.119L52.2197 229.112C52.7275 228.215 53.0338 227.218 53.1173 226.19C53.2007 225.163 53.0598 224.131 52.7042 223.164C51.8764 221.055 50.3327 219.305 48.3431 218.218L48.1271 218.1L48.2417 217.882L49.0582 216.33L47.225 215.366L46.3859 216.956L46.2781 217.16L46.066 217.069C43.4148 215.929 40.5124 215.502 37.6475 215.829L38.1734 219.817C40.2076 219.567 42.2734 219.792 44.2078 220.475L44.4806 220.572L44.3457 220.828L40.8264 227.503L40.7123 227.72L40.4935 227.61L40.4108 227.569C37.3745 226.781 34.9709 226.604 33.182 227.009ZM43.1635 228.19L42.8517 228.115L43.0005 227.831L46.2315 221.664L46.3526 221.433L46.5783 221.563C47.5247 222.111 48.2689 222.95 48.7002 223.954L48.7003 223.954L48.7024 223.959C48.8758 224.389 48.9517 224.852 48.9246 225.315C48.8977 225.774 48.7698 226.223 48.5501 226.627C48.3727 227.013 48.1171 227.358 47.7995 227.64C47.4795 227.924 47.1037 228.138 46.6961 228.269L46.6814 228.273L46.6663 228.276C45.5058 228.496 44.3119 228.466 43.1635 228.19ZM32.5515 235.805L32.5513 235.805L32.5472 235.795C32.3683 235.367 32.2803 234.907 32.2886 234.444C32.2969 233.98 32.4015 233.523 32.5956 233.102C32.7898 232.681 33.0693 232.305 33.4165 231.998C33.7637 231.69 34.171 231.458 34.6127 231.316L34.63 231.31L34.648 231.307C35.8921 231.099 37.1661 231.158 38.3859 231.479L38.69 231.559L38.5435 231.837L35.1759 238.232L35.0524 238.467L34.8256 238.33C33.834 237.732 33.0424 236.853 32.5515 235.805Z" fill="#01082B" stroke="#FAF9FF" stroke-width="0.5"/>
<path d="M63.3216 143.977C69.2907 143.614 74.9033 143.151 80.9862 142.545C83.1596 142.333 85.35 142.363 87.5166 142.636C95.435 143.651 102.951 144.599 110.187 145.485C126.873 147.508 141.967 149.145 156.886 150.221L160.815 150.494C170.435 151.117 180.087 149.961 189.287 147.084C192.981 145.94 196.538 144.811 200.005 143.697C203.266 142.659 206.444 141.621 209.584 140.59L198.275 103.917C191.381 106.387 184.191 108.903 176.439 111.57C171.57 113.24 166.522 114.338 161.399 114.843C155.073 115.472 148.126 116.237 140.761 117.041C131.227 118.071 121.003 119.162 110.528 120.071C103.839 120.64 97.0505 121.117 90.285 121.458C87.9795 121.562 85.6909 121.019 83.6788 119.89C78.6426 117.086 71.7936 114.722 67.9406 111.214L62.51 102.743C62.2427 102.324 61.8354 102.013 61.3604 101.866C60.8854 101.719 60.3736 101.745 59.9161 101.939C59.069 102.304 58.3919 102.976 58.0217 103.82C57.6514 104.664 57.6155 105.616 57.9213 106.486C59.6051 111.259 60.8262 115.396 62.0701 119.056C60.2119 118.799 58.3764 118.571 56.6092 118.359C52.8927 117.912 49.4493 117.533 46.7036 117.063C45.795 116.908 44.8666 116.908 43.958 117.063C42.9855 117.238 42.0542 117.592 41.2123 118.109H41.1668C40.0144 118.817 39.1262 119.883 38.6384 121.143C38.1507 122.404 38.0904 123.789 38.4667 125.088C40.3022 131.407 41.9329 136.294 44.4586 142.735C44.689 143.318 45.0951 143.816 45.6208 144.16C46.1466 144.503 46.7661 144.675 47.3938 144.652L49.9422 144.568C54.7737 144.44 59.1349 144.227 63.3216 143.977Z" fill="white"/>
<path d="M43.8455 112.419C43.8455 113.985 43.8885 115.544 43.9744 117.094C44.8831 116.939 45.8115 116.939 46.7201 117.094C49.4657 117.564 52.9091 117.943 56.6256 118.39C56.4638 116.425 56.3855 114.44 56.3905 112.435C56.3978 93.4898 63.5678 75.247 76.465 61.3584C89.3623 47.4698 107.035 38.9606 125.944 37.5343C144.854 36.1079 163.605 41.8698 178.444 53.6663C193.282 65.4629 203.113 82.4233 205.967 101.152C210.018 99.6367 213.992 98.2047 217.951 96.7196C214.028 75.1834 202.182 55.8925 184.743 42.6393C167.304 29.3861 145.533 23.1293 123.71 25.099C101.888 27.0688 81.5918 37.1225 66.813 53.2838C52.0341 69.445 43.8414 90.5446 43.8455 112.435V112.419Z" fill="white"/>
<path d="M56.3899 112.419C56.3899 114.44 56.4683 116.425 56.625 118.375C58.3923 118.587 60.2278 118.814 62.086 119.072C60.8421 115.412 59.621 111.275 57.9372 106.501C57.6314 105.632 57.6673 104.679 58.0375 103.835C58.4078 102.992 59.0849 102.32 59.9319 101.955C60.3895 101.761 60.9013 101.735 61.3763 101.882C61.8512 102.029 62.2586 102.339 62.5259 102.758L67.9186 111.199C71.7716 114.707 78.6205 117.071 83.6567 119.875C85.6688 121.004 87.9574 121.548 90.263 121.443C97.0285 121.102 103.817 120.625 110.506 120.057C113.637 115.624 117.351 111.632 121.55 108.191L113.601 91.8699C110.061 94.9867 106.739 99.4041 103.635 105.122L87.8131 96.2419C92.7634 87.3818 98.7654 80.5876 105.819 75.8595L103.005 70.0781L115.034 64.2286L117.742 69.7902C125.034 67.2645 131.817 67.0751 138.092 69.2219C144.367 71.3688 149.079 75.6625 152.23 82.103C155.375 88.5688 155.931 94.4209 153.898 99.6592C151.865 104.898 147.373 110.469 140.42 116.374L140.739 117.018C148.104 116.215 155.051 115.45 161.377 114.821C166.5 114.316 171.547 113.217 176.417 111.548C184.169 108.881 191.359 106.365 198.253 103.895C200.862 102.965 203.434 102.038 205.967 101.114C203.112 82.3852 193.282 65.4247 178.443 53.6282C163.605 41.8317 144.854 36.0698 125.944 37.4961C107.034 38.9224 89.3616 47.4317 76.4644 61.3203C63.5672 75.2089 56.3972 93.4517 56.3899 112.396V112.419Z" fill="white"/>
<path d="M63.3209 143.977C59.1342 144.235 54.773 144.447 49.9568 144.629C56.247 160.533 67.0545 174.252 81.0493 184.099C95.0441 193.945 111.615 199.489 128.723 200.048C129.679 200.048 130.635 200.093 131.598 200.093C150.282 200.087 168.478 194.128 183.539 183.082C198.601 172.036 209.743 156.48 215.348 138.673L209.583 140.583C206.443 141.613 203.265 142.651 200.004 143.689C194.014 156.753 184.401 167.828 172.304 175.602C160.207 183.375 146.133 187.522 131.75 187.551C117.366 187.579 103.276 183.489 91.1483 175.764C79.0205 168.038 69.3633 157.002 63.3209 143.962V143.977Z" fill="white"/>
<path d="M63.3229 143.977C64.1521 145.766 65.0471 147.513 66.0078 149.221C72.5038 160.77 81.9401 170.398 93.3605 177.131C104.781 183.863 117.78 187.461 131.04 187.558C144.3 187.656 157.35 184.251 168.869 177.687C180.388 171.123 189.965 161.635 196.631 150.183C197.865 148.082 198.991 145.92 200.006 143.705C196.54 144.818 192.982 145.978 189.289 147.092C180.089 149.969 170.436 151.125 160.816 150.501L156.887 150.229L159.595 155.813L160.444 157.556L148.415 163.398L144.547 155.464C136.876 158.162 129.838 158.45 123.431 156.328C120.304 155.317 117.425 153.659 114.982 151.464C113.082 149.726 111.46 147.707 110.173 145.478C102.937 144.591 95.4211 143.644 87.5027 142.629C85.3361 142.356 83.1457 142.325 80.9723 142.538C74.9046 143.144 69.292 143.606 63.3229 143.977Z" fill="white"/>
<path d="M70.7935 258.657C93.4792 297.414 108.823 324.472 119.502 355.583L126.154 352.393L154.285 338.899C155.802 341.899 157.276 344.877 158.707 347.832C162.939 356.621 166.772 365.269 170.206 373.776C171.217 376.302 172.193 378.79 173.133 381.239C176.132 389.105 178.799 396.863 181.135 404.516L192.967 399.076L226.415 383.74C212.46 346.612 194.924 316.864 170.433 286.571C169.889 285.897 169.627 285.039 169.704 284.177C169.78 283.315 170.188 282.516 170.843 281.949C190.995 264.37 204.215 250.451 218.103 232.781C227.753 232.469 237.098 229.33 244.976 223.754C252.854 218.178 258.918 210.411 262.412 201.419L244.884 189.44C232.407 189.031 214.545 186.53 198.815 171.338C198.42 170.959 198.056 170.58 197.639 170.179C189.41 179.591 179.258 187.132 167.867 192.295C156.475 197.457 144.109 200.122 131.6 200.108C130.636 200.108 129.681 200.108 128.725 200.063C125.378 201.871 121.972 203.798 118.509 205.844C103.546 214.804 89.1346 224.652 75.3519 235.334C71.8824 238.003 69.5056 241.843 68.6665 246.136C67.8275 250.429 68.5837 254.881 70.7935 258.657Z" fill="#C4F0E9"/>
<path d="M118.506 205.822C120.88 206.095 123.285 206.276 125.712 206.352C126.667 206.352 127.631 206.398 128.594 206.398C141.102 206.411 153.467 203.747 164.857 198.584C176.248 193.421 186.398 185.88 194.626 176.468C196.082 174.811 197.478 173.094 198.812 171.316C198.418 170.937 198.054 170.558 197.637 170.156C189.408 179.568 179.256 187.11 167.865 192.272C156.473 197.435 144.106 200.099 131.597 200.086C130.634 200.086 129.678 200.086 128.723 200.04C125.375 201.854 121.97 203.781 118.506 205.822Z" fill="#01082B"/>
<path d="M118.333 277.404C118.955 279.094 138.811 333.24 141.618 344.969C144.652 343.522 149.794 340.953 154.186 338.756C143.893 318.675 132.465 299.195 119.956 280.412C119.327 279.459 118.784 278.452 118.333 277.404Z" fill="#01082B"/>
<path d="M87.8137 96.2421L103.635 105.107C106.745 99.3942 110.067 94.9767 113.601 91.855L121.55 108.176C117.352 111.617 113.637 115.609 110.507 120.042C120.981 119.163 131.205 118.072 140.739 117.011L140.421 116.367C147.373 110.467 151.866 104.895 153.899 99.6518C155.931 94.4085 155.375 88.5564 152.23 82.0956C149.09 75.6298 144.377 71.3361 138.092 69.2145C131.807 67.0929 125.024 67.2824 117.743 69.7828L115.035 64.2212L103.006 70.0707L105.82 75.8521C98.771 80.6004 92.769 87.3971 87.8137 96.2421ZM131.805 98.6971L125.403 85.5508C129.196 85.0962 131.85 86.3919 133.322 89.4151C134.793 92.4384 134.292 95.5374 131.812 98.7047L131.805 98.6971Z" fill="#B9DE9D"/>
<path d="M112.683 393.136C111.783 393.859 111.067 394.786 110.595 395.84C110.122 396.894 109.908 398.045 109.968 399.198L110.127 402.342L170.213 373.777C166.769 365.26 162.937 356.612 158.715 347.833L130.113 361.373C133.807 374.14 121.269 386.256 112.683 393.136Z" fill="#01082B"/>
<path d="M110.186 145.493C111.472 147.723 113.094 149.742 114.995 151.479C117.438 153.675 120.317 155.332 123.444 156.344C129.855 158.465 136.894 158.177 144.56 155.48L148.428 163.413L160.457 157.571L159.608 155.828L156.885 150.229C141.966 149.138 126.842 147.501 110.186 145.493Z" fill="#B9DE9D"/>
<path d="M110.128 402.357L111.592 405.388C111.851 405.933 112.215 406.422 112.663 406.826C113.112 407.23 113.635 407.542 114.205 407.744C114.774 407.946 115.377 408.034 115.98 408.003C116.584 407.972 117.175 407.822 117.72 407.563L173.088 381.225C172.147 378.749 171.172 376.262 170.16 373.761L110.128 402.357Z" fill="white"/>
<path d="M125.408 85.5572L131.81 98.7035C134.287 95.5363 134.793 92.4423 133.327 89.4215C131.855 86.3907 129.216 85.1026 125.408 85.5572Z" fill="white"/>
<path d="M126.153 352.387L130.082 361.366L158.684 347.803C157.258 344.847 155.784 341.87 154.262 338.869L126.153 352.387Z" fill="white"/>
<path d="M157.28 432.999V436.408C157.28 437.625 157.763 438.792 158.624 439.652C159.484 440.513 160.651 440.998 161.869 441H237.238C238.457 441 239.626 440.516 240.488 439.655C241.35 438.794 241.834 437.626 241.834 436.408V432.999H157.28Z" fill="white"/>
<path d="M158.486 430.089L157.28 432.998H241.834C238.292 419.428 234.538 406.85 230.457 395.037C228.739 396.062 227.262 397.446 226.128 399.093C224.995 400.741 224.231 402.614 223.889 404.584H192.898C190.774 417.723 174.232 423.269 163.515 425.8C162.398 426.068 161.36 426.597 160.486 427.342C159.612 428.087 158.927 429.029 158.486 430.089Z" fill="#01082B"/>
<path d="M192.921 404.585H223.912C224.254 402.615 225.018 400.742 226.152 399.094C227.285 397.446 228.762 396.063 230.48 395.038C229.161 391.194 227.808 387.428 226.423 383.74L192.967 399.076C193.215 400.905 193.2 402.76 192.921 404.585Z" fill="white"/>
<path d="M215.349 138.674C211.699 150.284 205.668 161.006 197.639 170.157C213.68 186.41 232.096 189.002 244.884 189.441C247.371 189.524 249.654 189.524 251.657 189.524H295.906C296.429 152.563 296.186 126.036 294.063 96.9774C293.657 91.1463 291.292 85.6229 287.35 81.303C283.409 76.9831 278.122 74.1199 272.348 73.1776C268.973 72.6045 265.518 72.7171 262.188 73.5087C258.859 74.3002 255.723 75.7545 252.969 77.7845C251.958 78.5119 250.974 79.2393 250.019 79.9667C246.226 82.793 242.616 85.6496 239.104 88.5819C231.884 91.4158 224.944 94.0829 217.951 96.7046C213.991 98.22 210.017 99.6597 205.967 101.137C203.439 102.062 200.867 102.989 198.253 103.918L209.585 140.584L215.349 138.674Z" fill="#01082B"/>
<path d="M214.386 22.8043H243.883V35.6248H247.577C247.577 35.6248 251.672 26.5322 256.678 30.0783C261.684 33.6244 256.815 41.5576 256.815 41.5576C260.911 43.4519 265.158 47.7178 268.677 52.105L268.495 51.0745C268.074 48.7112 268.316 46.2777 269.193 44.0429C278.772 19.9628 267.145 5.31627 258.908 9.46095C248.616 -6.57982 219.422 1.47467 214.386 22.8043Z" fill="#01082B"/>
<path d="M225.771 43.5732C225.613 43.7582 225.514 43.9869 225.488 44.229C225.463 44.4711 225.511 44.7153 225.627 44.9295C228.32 50.1577 225.081 63.3419 248.381 64.7664C248.813 64.7915 249.219 64.9803 249.516 65.2943C249.814 65.6083 249.98 66.0238 249.981 66.4561V79.9661C250.952 79.2387 251.936 78.5113 252.932 77.7839C255.686 75.7538 258.822 74.2996 262.151 73.508C265.481 72.7164 268.936 72.6038 272.311 73.177L268.632 52.1353C265.082 47.7482 260.865 43.4822 256.77 41.588C256.77 41.588 261.654 33.6774 256.633 30.1086C251.612 26.5398 247.577 35.6248 247.577 35.6248H243.906V22.7437H228.881C228.972 27.0778 229.033 30.9497 229.381 35.6248C229.514 37.4293 229.021 39.2243 227.986 40.709C227.305 41.7067 226.565 42.6631 225.771 43.5732Z" fill="white"/>
<path d="M244.883 189.44L262.419 201.442C263.905 197.61 264.902 193.605 265.385 189.523H251.657C249.654 189.501 247.371 189.501 244.883 189.44Z" fill="white"/>
<path d="M63.3287 143.978C81.0692 142.887 81.9946 141.932 87.5238 142.637C112.265 145.796 136.475 148.873 160.822 150.494C170.442 151.117 180.095 149.961 189.295 147.084C192.988 145.94 196.546 144.811 200.012 143.698C199.185 145.501 185.98 157.783 159.616 155.821C145.584 154.942 127.965 153.01 115.003 151.472C74.2506 146.622 92.249 147.433 66.0137 149.198C66.0137 149.198 53.8783 148.547 50.3059 145.463C54.3789 144.736 60.0294 144.228 63.3287 143.978Z" fill="#01082B"/>
<path d="M215.348 138.673C209.742 156.478 198.599 172.033 183.537 183.078C168.476 194.122 150.281 200.08 131.598 200.086C130.635 200.086 129.679 200.086 128.723 200.04C111.615 199.482 95.0441 193.938 81.0493 184.091C67.0545 174.245 56.247 160.525 49.9568 144.621" stroke="#01082B" stroke-width="1.19774" stroke-linecap="round" stroke-linejoin="round"/>
<path d="M43.9744 117.094C43.8885 115.548 43.8455 113.99 43.8455 112.419C43.8415 90.529 52.0342 69.4294 66.813 53.2682C81.5918 37.1069 101.888 27.0531 123.71 25.0834C145.533 23.1137 167.304 29.3704 184.743 42.6237C202.182 55.8769 214.028 75.1678 217.951 96.7039" stroke="#01082B" stroke-width="1.19774" stroke-linecap="round" stroke-linejoin="round"/>
<path d="M200.006 143.698C194.016 156.762 184.403 167.836 172.306 175.61C160.209 183.384 146.135 187.53 131.752 187.559C117.368 187.588 103.278 183.497 91.1503 175.772C79.0224 168.047 69.3653 157.01 63.3229 143.971V143.971" stroke="#01082B" stroke-width="1.19774" stroke-linecap="round" stroke-linejoin="round"/>
<path d="M56.625 118.375C56.4632 116.41 56.3848 114.425 56.3899 112.419C56.3972 93.4746 63.5672 75.2318 76.4644 61.3432C89.3616 47.4547 107.034 38.9454 125.944 37.5191C144.854 36.0927 163.605 41.8546 178.443 53.6511C193.282 65.4477 203.112 82.4082 205.967 101.137" stroke="#01082B" stroke-width="1.19774" stroke-linecap="round" stroke-linejoin="round"/>
<path d="M209.585 140.582C206.445 141.613 203.267 142.651 200.005 143.689C196.539 144.803 192.982 145.962 189.288 147.076C180.088 149.953 170.436 151.109 160.815 150.486L156.887 150.213C141.968 149.137 126.844 147.5 110.188 145.477C102.952 144.591 95.4357 143.644 87.5174 142.628C85.3507 142.356 83.1604 142.325 80.987 142.537C74.9193 143.144 69.2915 143.606 63.3223 143.969C59.1356 144.227 54.7744 144.439 49.9582 144.621L47.4097 144.704C46.782 144.728 46.1625 144.556 45.6368 144.213C45.111 143.869 44.7049 143.371 44.4745 142.787C41.9488 136.347 40.3181 131.422 38.4826 125.14C38.1063 123.842 38.1666 122.457 38.6544 121.196C39.1421 119.935 40.0303 118.87 41.1827 118.162H41.2282C42.0701 117.645 43.0014 117.291 43.9739 117.116C44.8825 116.961 45.8109 116.961 46.7195 117.116C49.4652 117.586 52.9086 117.965 56.6251 118.412C58.3923 118.624 60.2278 118.851 62.086 119.109C60.8422 115.449 59.621 111.312 57.9372 106.538C57.6315 105.669 57.6673 104.716 58.0376 103.873C58.4078 103.029 59.0849 102.357 59.932 101.992C60.3896 101.798 60.9014 101.772 61.3763 101.919C61.8513 102.066 62.2586 102.376 62.5259 102.795L67.9186 111.236C71.7716 114.744 78.6206 117.109 83.6568 119.912C85.6689 121.041 87.9575 121.585 90.263 121.481C97.0285 121.14 103.817 120.662 110.506 120.094C120.981 119.215 131.205 118.124 140.739 117.063C148.104 116.26 155.051 115.495 161.377 114.866C166.5 114.361 171.547 113.262 176.417 111.592C184.169 108.925 191.359 106.41 198.253 103.94C200.862 103.01 203.434 102.083 205.967 101.159C210.017 99.6433 213.991 98.2112 217.951 96.7261C224.944 94.1044 231.884 91.4221 239.104 88.6034C242.616 85.6711 246.234 82.8145 250.019 79.9882C250.989 79.2608 251.973 78.5334 252.969 77.806C255.723 75.776 258.859 74.3217 262.188 73.5301C265.518 72.7386 268.973 72.626 272.348 73.1991C278.119 74.1404 283.403 77.0003 287.344 81.3156C291.285 85.631 293.652 91.149 294.063 96.9761C296.186 126.034 296.429 152.562 295.906 189.523H251.657C249.654 189.523 247.371 189.523 244.884 189.44C232.096 189.023 213.68 186.409 197.639 170.179" stroke="#01082B" stroke-width="1.19774" stroke-linecap="round" stroke-linejoin="round"/>
<path d="M267.516 120.489C247.113 127.717 231.458 133.264 215.348 138.674L209.584 140.583" stroke="#01082B" stroke-width="1.19774" stroke-linecap="round" stroke-linejoin="round"/>
<path d="M198.253 103.917L209.584 140.583" stroke="#01082B" stroke-width="1.19774" stroke-linecap="round" stroke-linejoin="round"/>
<path d="M265.385 189.5C263.997 201.174 258.463 211.963 249.787 219.906C241.112 227.848 229.871 232.417 218.11 232.781C204.199 250.451 191.002 264.37 170.85 281.949C170.196 282.516 169.787 283.315 169.711 284.177C169.634 285.039 169.896 285.898 170.44 286.571C194.931 316.88 212.467 346.605 226.422 383.74C227.808 387.433 229.16 391.198 230.48 395.038C234.538 406.85 238.292 419.428 241.857 432.999H157.281L158.487 430.089C158.929 429.026 159.618 428.084 160.496 427.338C161.374 426.593 162.417 426.066 163.538 425.801C174.255 423.27 190.797 417.723 192.921 404.585C193.202 402.76 193.22 400.905 192.974 399.076" stroke="#01082B" stroke-width="1.19774" stroke-linecap="round" stroke-linejoin="round"/>
<path d="M186.822 188.925C164.501 204.685 142.27 228.659 120.616 257.664C118.176 260.924 116.803 264.857 116.685 268.926C116.567 272.994 117.709 277 119.956 280.396C132.503 299.229 143.965 318.761 154.284 338.899C155.801 341.899 157.275 344.877 158.706 347.832C162.938 356.622 166.771 365.27 170.204 373.776C171.216 376.302 172.191 378.79 173.132 381.24C176.13 389.105 178.798 396.864 181.134 404.517L192.966 399.076L226.414 383.74" stroke="#01082B" stroke-width="1.19774" stroke-linecap="round" stroke-linejoin="round"/>
<path d="M192.921 404.584H223.912C224.254 402.614 225.018 400.741 226.152 399.093C227.285 397.446 228.762 396.062 230.48 395.037" stroke="#01082B" stroke-width="1.19774" stroke-linecap="round" stroke-linejoin="round"/>
<path d="M241.834 432.999V436.408C241.834 437.626 241.35 438.794 240.488 439.655C239.626 440.516 238.457 441 237.238 441H161.869C160.65 441 159.481 440.516 158.619 439.655C157.757 438.794 157.273 437.626 157.273 436.408V432.999" stroke="#01082B" stroke-width="1.19774" stroke-linecap="round" stroke-linejoin="round"/>
<path d="M170.213 373.777L110.127 402.358L109.968 399.213C109.908 398.06 110.122 396.909 110.595 395.855C111.067 394.801 111.783 393.875 112.683 393.151C121.269 386.271 133.822 374.155 130.083 361.388L158.684 347.802" stroke="#01082B" stroke-width="1.19774" stroke-linecap="round" stroke-linejoin="round"/>
<path d="M173.117 381.239L117.749 407.577C117.204 407.837 116.613 407.986 116.01 408.018C115.406 408.049 114.803 407.961 114.234 407.759C113.665 407.557 113.141 407.245 112.693 406.841C112.244 406.436 111.88 405.948 111.621 405.403L110.157 402.326" stroke="#01082B" stroke-width="1.19774" stroke-linecap="round" stroke-linejoin="round"/>
<path d="M126.153 352.394L119.501 355.584C108.822 324.473 93.4785 297.415 70.7928 258.658C68.5757 254.88 67.8147 250.424 68.6526 246.126C69.4905 241.828 71.8696 237.983 75.3436 235.313C94.9044 220.333 112.508 208.793 128.717 200.041" stroke="#01082B" stroke-width="1.19774" stroke-linecap="round" stroke-linejoin="round"/>
<path d="M154.262 338.899L126.145 352.387" stroke="#01082B" stroke-width="1.19774" stroke-linecap="round" stroke-linejoin="round"/>
<path d="M130.082 361.373L126.146 352.394V352.387" stroke="#01082B" stroke-width="1.19774" stroke-linecap="round" stroke-linejoin="round"/>
<path d="M250.018 79.9661V66.4561C250.016 66.0238 249.85 65.6083 249.553 65.2943C249.255 64.9803 248.849 64.7915 248.417 64.7664C225.079 63.3419 228.318 50.1577 225.625 44.9295C225.509 44.7153 225.461 44.4711 225.487 44.229C225.512 43.9869 225.611 43.7582 225.769 43.5732C226.555 42.6722 227.287 41.726 227.961 40.7393C229.009 39.2483 229.507 37.4412 229.372 35.6248C229.023 30.98 228.963 27.1081 228.872 22.7437" stroke="#01082B" stroke-width="1.19774" stroke-linecap="round" stroke-linejoin="round"/>
<path d="M272.349 73.177L268.671 52.1353L268.489 51.1048C268.068 48.7415 268.309 46.308 269.186 44.0733C278.773 19.9629 267.146 5.31627 258.909 9.46095C248.617 -6.57982 219.423 1.47467 214.387 22.8043H243.884V35.6248H247.578C247.578 35.6248 251.673 26.5322 256.679 30.0783C261.685 33.6244 256.816 41.5577 256.816 41.5577C260.912 43.4519 265.159 47.7179 268.678 52.105" stroke="#01082B" stroke-width="1.19774" stroke-linecap="round" stroke-linejoin="round"/>
<path d="M262.42 201.419L244.884 189.417" stroke="#01082B" stroke-width="1.19774" stroke-linecap="round" stroke-linejoin="round"/>
<path d="M232.483 35.3071C234.142 35.7851 235.921 35.6059 237.451 34.8066" stroke="#01082B" stroke-width="1.19774" stroke-linecap="round" stroke-linejoin="round"/>
</svg>
