<svg width="52" height="40" viewBox="0 0 52 40" fill="none" xmlns="http://www.w3.org/2000/svg">
<path opacity="0.2" d="M11.2278 37.7777C11.2278 37.0326 11.7153 36.4182 12.5192 36.4182C13.2835 36.4182 13.8106 37.0064 13.8106 37.7777C13.8106 38.5489 13.2967 39.1372 12.5192 39.1372C11.7285 39.1372 11.2278 38.5228 11.2278 37.7777ZM14.6935 37.7777V35.66H13.7711V36.1698C13.468 35.7908 13.0331 35.5555 12.4269 35.5555C11.2278 35.5555 10.2921 36.4836 10.2921 37.7777C10.2921 39.0718 11.2278 39.9999 12.4269 39.9999C13.0331 39.9999 13.4812 39.7646 13.7711 39.3855V39.8953H14.6935V37.7777ZM46.0306 37.7777C46.0306 37.0326 46.5182 36.4182 47.322 36.4182C48.0864 36.4182 48.6135 37.0064 48.6135 37.7777C48.6135 38.5489 48.0995 39.1372 47.322 39.1372C46.5314 39.1372 46.0306 38.5228 46.0306 37.7777ZM49.4832 37.7777V33.9607H48.5608V36.1698C48.2709 35.7908 47.8228 35.5555 47.2166 35.5555C46.0174 35.5555 45.0818 36.4836 45.0818 37.7777C45.0818 39.0718 46.0174 39.9999 47.2166 39.9999C47.8228 39.9999 48.2709 39.7646 48.5608 39.3855V39.8953H49.4832V37.7777ZM26.1979 36.379C26.7909 36.379 27.1862 36.745 27.2785 37.4117H25.0646C25.17 36.7973 25.539 36.379 26.1979 36.379ZM26.2242 35.5555C24.9723 35.5555 24.1026 36.4574 24.1026 37.7777C24.1026 39.1241 25.0119 39.9999 26.2901 39.9999C26.9358 39.9999 27.5157 39.843 28.0428 39.4117L27.5815 38.7319C27.2257 39.0195 26.7645 39.1764 26.3428 39.1764C25.7498 39.1764 25.1963 38.9019 25.0646 38.1437H28.2273C28.2404 38.0261 28.2404 37.9084 28.2404 37.7908C28.2404 36.4574 27.4102 35.5555 26.2242 35.5555ZM37.4254 37.7777C37.4254 37.0326 37.913 36.4182 38.7169 36.4182C39.4812 36.4182 39.9951 37.0064 39.9951 37.7777C39.9951 38.5489 39.4812 39.1372 38.7169 39.1372C37.913 39.1372 37.4254 38.5228 37.4254 37.7777ZM40.8781 37.7777V35.66H39.9556V36.1698C39.6657 35.7908 39.2176 35.5555 38.6115 35.5555C37.4123 35.5555 36.4766 36.4836 36.4766 37.7777C36.4766 39.0718 37.4123 39.9999 38.6115 39.9999C39.2176 39.9999 39.6657 39.7646 39.9556 39.3855V39.8953H40.8781V37.7777ZM32.1806 37.7777C32.1806 39.0587 33.0767 39.9999 34.4604 39.9999C35.1061 39.9999 35.5278 39.8561 36.0022 39.4901L35.5542 38.745C35.1984 38.9934 34.8426 39.1241 34.4341 39.1241C33.6961 39.111 33.1426 38.5881 33.1426 37.7646C33.1426 36.9542 33.6829 36.4182 34.4341 36.4051C34.8294 36.4051 35.1984 36.5359 35.5542 36.7842L36.0022 36.0391C35.541 35.6731 35.1061 35.5293 34.4604 35.5293C33.0899 35.5555 32.1806 36.4966 32.1806 37.7777ZM44.1462 35.5555C43.6059 35.5555 43.2632 35.8038 43.026 36.1698V35.66H42.1036V39.8953H43.026V37.5162C43.026 36.8234 43.3291 36.4313 43.9353 36.4313C44.1198 36.4313 44.3175 36.4574 44.5151 36.5359L44.8051 35.6731C44.5942 35.5947 44.3307 35.5555 44.1462 35.5555ZM19.2795 35.9999C18.8314 35.7123 18.2121 35.5555 17.54 35.5555C16.4594 35.5555 15.761 36.0653 15.761 36.9019C15.761 37.5947 16.2749 38.013 17.2369 38.1568L17.6718 38.2221C18.1857 38.3006 18.4229 38.4313 18.4229 38.6666C18.4229 38.9934 18.0803 39.1764 17.4477 39.1764C16.802 39.1764 16.3408 38.9672 16.0245 38.7319L15.5896 39.4509C16.1036 39.83 16.7361 39.9999 17.4346 39.9999C18.6601 39.9999 19.3849 39.4247 19.3849 38.6143C19.3849 37.8692 18.8182 37.477 17.8958 37.3463L17.4609 37.281C17.0524 37.2287 16.7361 37.1502 16.7361 36.8627C16.7361 36.5489 17.0392 36.3659 17.5532 36.3659C18.0934 36.3659 18.6206 36.562 18.8841 36.7319L19.2795 35.9999ZM31.245 35.5555C30.7047 35.5555 30.3621 35.8038 30.1117 36.1698V35.66H29.1892V39.8953H30.1117V37.5162C30.1117 36.8234 30.4148 36.4313 31.021 36.4313C31.2055 36.4313 31.4031 36.4574 31.6008 36.5359L31.8907 35.6731C31.7062 35.5947 31.4295 35.5555 31.245 35.5555ZM23.3251 35.66H21.8096V34.379H20.874V35.66H20.0042V36.4966H20.874V38.4313C20.874 39.4117 21.2561 39.9999 22.3631 39.9999C22.7584 39.9999 23.2328 39.8823 23.5227 39.6731L23.2592 38.8888C22.9825 39.0457 22.6794 39.1241 22.4422 39.1241C21.9809 39.1241 21.8228 38.8365 21.8228 38.4182V36.5097H23.3251V35.66ZM9.46192 39.8953V37.2417C9.46192 36.2352 8.8162 35.5685 7.78833 35.5555C7.24803 35.5424 6.68138 35.7123 6.28605 36.3006C5.99613 35.83 5.52173 35.5555 4.87601 35.5555C4.41478 35.5555 3.97991 35.6862 3.62411 36.1829V35.66H2.68848V39.8953H3.62411V37.5555C3.62411 36.8234 4.03262 36.4313 4.66516 36.4313C5.28452 36.4313 5.58762 36.8365 5.58762 37.5424V39.8953H6.52325V37.5555C6.52325 36.8234 6.95812 36.4313 7.5643 36.4313C8.19684 36.4313 8.49993 36.8365 8.49993 37.5424V39.8953H9.46192Z" fill="#0D1350"/>
<path opacity="0.4" d="M32.1275 15.9346C32.1275 21.0196 29.7291 25.5425 25.9866 28.4706C22.2441 25.5555 19.8457 21.0196 19.8457 15.9346C19.8457 10.8497 22.2441 6.32679 25.9866 3.39868C29.7291 6.32679 32.1275 10.8627 32.1275 15.9346Z" fill="#0D1350"/>
<path opacity="0.2" d="M19.8591 15.9346C19.8591 10.8497 22.2575 6.3268 26 3.39869C23.259 1.26797 19.8196 0 16.0639 0C7.19513 0 0 7.13726 0 15.9346C0 24.7451 7.19513 31.8693 16.0639 31.8693C19.8064 31.8693 23.259 30.6013 25.9868 28.4575C22.2575 25.5556 19.8591 21.0327 19.8591 15.9346Z" fill="#0D1350"/>
<path opacity="0.2" d="M52 15.9346C52 24.7451 44.8049 31.8693 35.9361 31.8693C32.1936 31.8693 28.741 30.6013 26 28.4575C29.7425 25.5425 32.1409 21.0065 32.1409 15.9216C32.1409 10.8366 29.7425 6.31373 26 3.38562C28.7278 1.26797 32.1804 0 35.923 0C44.8049 0 52 7.13726 52 15.9346Z" fill="#0D1350"/>
</svg>
