<svg width="24" height="24" viewBox="0 0 24 24" fill="none" xmlns="http://www.w3.org/2000/svg">
<path d="M12 7.125C11.3535 7.125 10.7335 7.38181 10.2764 7.83893C9.81931 8.29605 9.5625 8.91603 9.5625 9.5625V19.3125C9.5625 19.959 9.81931 20.579 10.2764 21.0361C10.7335 21.4932 11.3535 21.75 12 21.75C12.6465 21.75 13.2665 21.4932 13.7236 21.0361C14.1807 20.579 14.4375 19.959 14.4375 19.3125V9.5625C14.4375 8.91603 14.1807 8.29605 13.7236 7.83893C13.2665 7.38181 12.6465 7.125 12 7.125Z" fill="#985EFF"/>
<path d="M19.3125 2.25C18.666 2.25 18.046 2.50681 17.5889 2.96393C17.1318 3.42105 16.875 4.04103 16.875 4.6875V19.3125C16.875 19.959 17.1318 20.579 17.5889 21.0361C18.046 21.4932 18.666 21.75 19.3125 21.75C19.959 21.75 20.579 21.4932 21.0361 21.0361C21.4932 20.579 21.75 19.959 21.75 19.3125V4.6875C21.75 4.04103 21.4932 3.42105 21.0361 2.96393C20.579 2.50681 19.959 2.25 19.3125 2.25Z" fill="#985EFF"/>
<path d="M4.6875 12C4.04103 12 3.42105 12.2568 2.96393 12.7139C2.50681 13.171 2.25 13.791 2.25 14.4375V19.3125C2.25 19.959 2.50681 20.579 2.96393 21.0361C3.42105 21.4932 4.04103 21.75 4.6875 21.75C5.33397 21.75 5.95395 21.4932 6.41107 21.0361C6.86819 20.579 7.125 19.959 7.125 19.3125V14.4375C7.125 13.791 6.86819 13.171 6.41107 12.7139C5.95395 12.2568 5.33397 12 4.6875 12Z" fill="#985EFF"/>
</svg>
