<svg width="24" height="24" viewBox="0 0 24 24" fill="none" xmlns="http://www.w3.org/2000/svg">
<path d="M7.46821 4.70533C7.61418 3.72538 8.45562 3 9.44638 3H14.5537C15.5445 3 16.3859 3.72538 16.5319 4.70533L17.1583 8.9104C17.3383 10.119 16.402 11.2051 15.1801 11.2051H8.81999C7.59807 11.2051 6.66178 10.119 6.84182 8.9104L7.46821 4.70533Z" fill="#985EFF"/>
<path d="M13.9682 14.9614C14.1142 13.9815 14.9556 13.2561 15.9464 13.2561H21.0537C22.0445 13.2561 22.8859 13.9815 23.0319 14.9614L23.6583 19.1665C23.8383 20.3751 22.902 21.4612 21.6801 21.4612H15.32C14.0981 21.4612 13.1618 20.3751 13.3418 19.1665L13.9682 14.9614Z" fill="#985EFF"/>
<path d="M0.968206 14.9616C1.11418 13.9816 1.95562 13.2562 2.94638 13.2562H8.05372C9.04448 13.2562 9.88592 13.9816 10.0319 14.9616L10.6583 19.1666C10.8383 20.3752 9.90202 21.4613 8.68011 21.4613H2.31999C1.09807 21.4613 0.161784 20.3752 0.341815 19.1666L0.968206 14.9616Z" fill="#985EFF"/>
</svg>
