<svg width="24" height="24" viewBox="0 0 24 24" fill="none" xmlns="http://www.w3.org/2000/svg">
<path d="M12 -0.00012207C5.3832 -0.00012207 0 5.38308 0 11.9999C0 18.6167 5.3832 23.9999 12 23.9999C18.6168 23.9999 24 18.6167 24 11.9999C24 5.38308 18.6168 -0.00012207 12 -0.00012207ZM13.2 17.8979V19.1999H10.8V17.9039C7.9932 17.4635 7.2 15.5015 7.2 14.3999H9.6C9.6132 14.5715 9.7908 15.5999 12 15.5999C13.656 15.5999 14.4 14.8979 14.4 14.3999C14.4 14.0111 14.4 13.1999 12 13.1999C7.824 13.1999 7.2 10.9439 7.2 9.59988C7.2 8.05428 8.4348 6.49908 10.8 6.10188V4.81428H13.2V6.14508C15.2808 6.63708 16.08 8.36868 16.08 9.59988H14.88L13.68 9.62148C13.6632 9.16548 13.422 8.39988 12 8.39988C10.4412 8.39988 9.6 9.01908 9.6 9.59988C9.6 10.0487 9.6 10.7999 12 10.7999C16.176 10.7999 16.8 13.0559 16.8 14.3999C16.8 15.9455 15.5652 17.5007 13.2 17.8979Z" fill="#985EFF"/>
</svg>
