<svg
    width="24"
    height="24"
    viewBox="0 0 24 24"
    fill="none"
    xmlns="http://www.w3.org/2000/svg"
>
    <path
        fill-rule="evenodd"
        clip-rule="evenodd"
        d="M5 1C3.93913 1 2.92172 1.42143 2.17157 2.17157C1.42143 2.92172 1 3.93913 1 5V19C1 20.0609 1.42143 21.0783 2.17157 21.8284C2.92172 22.5786 3.93913 23 5 23H19C20.0609 23 21.0783 22.5786 21.8284 21.8284C22.5786 21.0783 23 20.0609 23 19V5C23 3.93913 22.5786 2.92172 21.8284 2.17157C21.0783 1.42143 20.0609 1 19 1H5ZM19.707 7.707C19.8892 7.5184 19.99 7.2658 19.9877 7.0036C19.9854 6.7414 19.8802 6.49059 19.6948 6.30518C19.5094 6.11977 19.2586 6.0146 18.9964 6.01233C18.7342 6.01005 18.4816 6.11084 18.293 6.293L9 15.586L5.707 12.293C5.5184 12.1108 5.2658 12.01 5.0036 12.0123C4.7414 12.0146 4.49059 12.1198 4.30518 12.3052C4.11977 12.4906 4.0146 12.7414 4.01233 13.0036C4.01005 13.2658 4.11084 13.5184 4.293 13.707L8.293 17.707C8.48053 17.8945 8.73484 17.9998 9 17.9998C9.26516 17.9998 9.51947 17.8945 9.707 17.707L19.707 7.707Z"
        fill="#985EFF"
    />
</svg>