<svg width="24" height="24" viewBox="0 0 24 24" fill="none" xmlns="http://www.w3.org/2000/svg">
<path d="M22 12C22 6.48 17.52 2 12 2C6.48 2 2 6.48 2 12C2 13.33 2.26 14.61 2.74 15.77L7.35 11.15C7.52674 10.9729 7.76341 10.8686 8.01333 10.8575C8.26325 10.8464 8.50825 10.9293 8.7 11.09L11.3 13.28L14.58 10H14C13.45 10 13 9.55 13 9C13 8.45 13.45 8 14 8H17C17.55 8 18 8.45 18 9V12C18 12.55 17.55 13 17 13C16.45 13 16 12.55 16 12V11.42L12.06 15.35C11.8831 15.5277 11.6454 15.6318 11.3949 15.641C11.1443 15.6503 10.8995 15.5642 10.71 15.4L8.12 13.21L3.72 17.61C4.63628 18.9627 5.87016 20.0702 7.31364 20.8355C8.75712 21.6008 10.3662 22.0006 12 22H20C21.1 22 22 21.1 22 20V12ZM19.5 20.5C18.95 20.5 18.5 20.05 18.5 19.5C18.5 18.95 18.95 18.5 19.5 18.5C20.05 18.5 20.5 18.95 20.5 19.5C20.5 20.05 20.05 20.5 19.5 20.5Z" fill="#985EFF"/>
</svg>
