<svg
    width="28"
    height="28"
    viewBox="0 0 28 28"
    fill="none"
    xmlns="http://www.w3.org/2000/svg"
>
    <path
        d="M13.9999 0.285645C21.5736 0.285645 27.7142 6.42622 27.7142 13.9999C27.7142 21.5736 21.5736 27.7142 13.9999 27.7142C6.42622 27.7142 0.285645 21.5736 0.285645 13.9999C0.285645 6.42622 6.42622 0.285645 13.9999 0.285645ZM13.9999 19.1428C13.621 19.1428 13.2577 19.2933 12.9898 19.5612C12.7219 19.8291 12.5714 20.1925 12.5714 20.5714C12.5714 20.9502 12.7219 21.3136 12.9898 21.5815C13.2577 21.8494 13.621 21.9999 13.9999 21.9999C14.3788 21.9999 14.7422 21.8494 15.0101 21.5815C15.278 21.3136 15.4285 20.9502 15.4285 20.5714C15.4285 20.1925 15.278 19.8291 15.0101 19.5612C14.7422 19.2933 14.3788 19.1428 13.9999 19.1428ZM13.9999 5.71422C11.7565 5.71422 9.71422 7.68564 9.71422 9.99993C9.71422 10.2273 9.80452 10.4453 9.96527 10.606C10.126 10.7668 10.344 10.8571 10.5714 10.8571C10.7987 10.8571 11.0167 10.7668 11.1774 10.606C11.3382 10.4453 11.4285 10.2273 11.4285 9.99993C11.4285 8.64679 12.6902 7.4285 13.9999 7.4285C15.3096 7.4285 16.5714 8.64679 16.5714 9.99993C16.5714 11.0056 16.2959 11.5828 15.5062 12.3714L15.3291 12.5451L14.6776 13.1485C13.5976 14.1805 13.1428 14.9725 13.1428 16.2856C13.1428 16.513 13.2331 16.731 13.3938 16.8917C13.5546 17.0525 13.7726 17.1428 13.9999 17.1428C14.2273 17.1428 14.4453 17.0525 14.606 16.8917C14.7668 16.731 14.8571 16.513 14.8571 16.2856C14.8571 15.5451 15.1005 15.1108 15.8731 14.3771L16.0605 14.2022L16.2936 13.9885L16.5188 13.7782C17.7531 12.5988 18.2856 11.6365 18.2856 9.99993C18.2856 7.68564 16.2434 5.71422 13.9999 5.71422Z"
        fill="#985EFF"
    />
</svg>