<svg width="24" height="24" viewBox="0 0 24 24" fill="none" xmlns="http://www.w3.org/2000/svg">
<g id="ri:dashboard-3-fill">
<path id="Vector" d="M12 2C17.523 2 22 6.477 22 12C22 17.523 17.523 22 12 22C6.477 22 2 17.523 2 12C2 6.477 6.477 2 12 2ZM16.596 7.404C16.4971 7.30478 16.3663 7.24366 16.2267 7.2314C16.0871 7.21915 15.9477 7.25654 15.833 7.337C12.943 9.365 11.313 10.567 10.939 10.939C10.658 11.2206 10.5001 11.6022 10.5001 12C10.5001 12.3978 10.658 12.7794 10.939 13.061C11.2206 13.342 11.6022 13.4999 12 13.4999C12.3978 13.4999 12.7794 13.342 13.061 13.061C13.28 12.841 14.479 11.21 16.659 8.164C16.7401 8.05035 16.7783 7.91161 16.7668 7.77245C16.7553 7.63329 16.6947 7.50274 16.596 7.404ZM17.5 11C17.2348 11 16.9804 11.1054 16.7929 11.2929C16.6054 11.4804 16.5 11.7348 16.5 12C16.5 12.2652 16.6054 12.5196 16.7929 12.7071C16.9804 12.8946 17.2348 13 17.5 13C17.7652 13 18.0196 12.8946 18.2071 12.7071C18.3946 12.5196 18.5 12.2652 18.5 12C18.5 11.7348 18.3946 11.4804 18.2071 11.2929C18.0196 11.1054 17.7652 11 17.5 11ZM6.5 11C6.23478 11 5.98043 11.1054 5.79289 11.2929C5.60536 11.4804 5.5 11.7348 5.5 12C5.5 12.2652 5.60536 12.5196 5.79289 12.7071C5.98043 12.8946 6.23478 13 6.5 13C6.76522 13 7.01957 12.8946 7.20711 12.7071C7.39464 12.5196 7.5 12.2652 7.5 12C7.5 11.7348 7.39464 11.4804 7.20711 11.2929C7.01957 11.1054 6.76522 11 6.5 11ZM8.818 7.404C8.72502 7.31116 8.61467 7.23753 8.49324 7.18734C8.37181 7.13714 8.24169 7.11135 8.11029 7.11144C7.9789 7.11154 7.84881 7.13751 7.72745 7.18788C7.60609 7.23825 7.49584 7.31202 7.403 7.405C7.21549 7.59277 7.11026 7.84734 7.11044 8.11271C7.11054 8.2441 7.13651 8.37419 7.18688 8.49555C7.23725 8.61691 7.31102 8.72716 7.404 8.82C7.59177 9.00751 7.84634 9.11274 8.11171 9.11256C8.37707 9.11237 8.63149 9.00677 8.819 8.819C9.00651 8.63123 9.11174 8.37666 9.11156 8.11129C9.11137 7.84593 9.00577 7.59151 8.818 7.404ZM12 5.5C11.7348 5.5 11.4804 5.60536 11.2929 5.79289C11.1054 5.98043 11 6.23478 11 6.5C11 6.76522 11.1054 7.01957 11.2929 7.20711C11.4804 7.39464 11.7348 7.5 12 7.5C12.2652 7.5 12.5196 7.39464 12.7071 7.20711C12.8946 7.01957 13 6.76522 13 6.5C13 6.23478 12.8946 5.98043 12.7071 5.79289C12.5196 5.60536 12.2652 5.5 12 5.5Z" fill="#985EFF"/>
</g>
</svg>
