<svg width="634" height="1021" viewBox="0 0 634 1021" fill="none" xmlns="http://www.w3.org/2000/svg">
<path d="M9.76 940V826.4H61.92C67.4667 826.4 72.5867 827.52 77.28 829.76C81.9733 832 86.0267 835.04 89.44 838.88C92.8533 842.613 95.4667 846.827 97.28 851.52C99.2 856.213 100.16 860.96 100.16 865.76C100.16 870.133 99.52 874.347 98.24 878.4C96.96 882.453 95.0933 886.187 92.64 889.6C90.1867 892.907 87.2533 895.787 83.84 898.24L107.84 940H73.6L53.6 905.12H40.96V940H9.76ZM40.96 877.92H60.64C61.92 877.92 63.1467 877.44 64.32 876.48C65.4933 875.52 66.4533 874.133 67.2 872.32C68.0533 870.507 68.48 868.32 68.48 865.76C68.48 863.093 68 860.907 67.04 859.2C66.1867 857.387 65.0667 856 63.68 855.04C62.4 854.08 61.12 853.6 59.84 853.6H40.96V877.92ZM125.729 940V826.4H156.929V940H125.729ZM253.31 863.52C253.31 863.52 252.403 862.987 250.59 861.92C248.777 860.853 246.377 859.68 243.39 858.4C240.403 857.013 237.15 855.787 233.63 854.72C230.11 853.653 226.643 853.12 223.23 853.12C220.563 853.12 218.377 853.547 216.67 854.4C214.963 855.253 214.11 856.693 214.11 858.72C214.11 860.64 214.963 862.187 216.67 863.36C218.377 864.533 220.777 865.6 223.87 866.56C227.07 867.52 230.857 868.693 235.23 870.08C242.27 872.213 248.35 874.667 253.47 877.44C258.59 880.213 262.537 883.787 265.31 888.16C268.083 892.427 269.47 898.133 269.47 905.28C269.47 912.107 268.243 917.867 265.79 922.56C263.337 927.147 260.03 930.827 255.87 933.6C251.71 936.373 247.07 938.4 241.95 939.68C236.83 940.853 231.603 941.44 226.27 941.44C220.83 941.44 215.123 940.907 209.15 939.84C203.283 938.667 197.577 937.12 192.03 935.2C186.483 933.173 181.417 930.827 176.83 928.16L190.27 900.8C190.27 900.8 191.337 901.44 193.47 902.72C195.603 904 198.43 905.44 201.95 907.04C205.47 908.64 209.363 910.08 213.63 911.36C218.003 912.64 222.377 913.28 226.75 913.28C230.163 913.28 232.51 912.853 233.79 912C235.177 911.04 235.87 909.813 235.87 908.32C235.87 906.08 234.697 904.373 232.35 903.2C230.003 901.92 226.91 900.747 223.07 899.68C219.337 898.507 215.177 897.173 210.59 895.68C203.977 893.44 198.537 890.933 194.27 888.16C190.003 885.28 186.857 881.92 184.83 878.08C182.803 874.133 181.79 869.387 181.79 863.84C181.79 855.413 183.763 848.373 187.71 842.72C191.657 837.067 196.83 832.8 203.23 829.92C209.737 826.933 216.723 825.44 224.19 825.44C229.737 825.44 235.07 826.133 240.19 827.52C245.417 828.8 250.27 830.4 254.75 832.32C259.337 834.24 263.337 836.053 266.75 837.76L253.31 863.52ZM372.22 912.8V940H291.26V826.4H370.78V853.6H322.46V869.6H363.74V894.88H322.46V912.8H372.22ZM438.666 940V826.4H516.586V853.6H469.866V872.48H507.946V897.76H469.866V940H438.666ZM559.063 826.4L579.703 862.24L600.343 826.4H633.943L598.263 884L632.663 940H599.063L579.703 905.76L560.343 940H526.582L560.983 884L525.302 826.4H559.063Z" fill="#F59D1F"/>
<path fill-rule="evenodd" clip-rule="evenodd" d="M481 0H507V80.5556H543V593.518H507V687.963H481V593.518H447V80.5556H481V0ZM351 60.1852H377V149.074H412V687.963H377V775H351V687.963H317V149.074H351V60.1852ZM221 149.074H247V210.185H282V626.852H247V687.963H221V626.852H187V210.185H221V149.074ZM117 276H91V339H56V583H91V626H117V583H152V339H117V276Z" fill="black"/>
<rect x="366.858" y="457.711" width="8.93433" height="145.423" transform="rotate(130.121 366.858 457.711)" fill="#202C0C"/>
<path fill-rule="evenodd" clip-rule="evenodd" d="M472 0H498V80.5556H534V593.518H498V687.963H472V593.518H438V80.5556H472V0ZM342 60.1848H368V149.074H403V687.963H368V775H342V687.963H308V149.074H342V60.1848ZM212 149.074H238V210.185H273V626.852H238V687.963H212V626.852H178V210.185H212V149.074ZM108 276H82V339.256H47V583.455H82V626.852H108V583.455H143V339.256H108V276Z" fill="url(#paint0_linear_40_197)"/>
<rect x="371.858" y="483.994" width="11.0325" height="74.4165" transform="rotate(130.373 371.858 483.994)" fill="#202C0C"/>
<path d="M315 435.5L308 430V444.5L315 435.5Z" fill="#F5F5F5"/>
<path d="M282.304 407.698L276.423 414.425L261.918 400.777L268.597 394.548L282.304 407.698Z" fill="#202C0C"/>
<rect x="264.326" y="388.021" width="8.93433" height="295.677" transform="rotate(54.7383 264.326 388.021)" fill="white"/>
<rect x="573.817" y="246.689" width="8.93434" height="310.024" transform="rotate(40.1168 573.817 246.689)" fill="#F5F5F5"/>
<path fill-rule="evenodd" clip-rule="evenodd" d="M588.056 271.869L614.999 195L542.807 232.725L571.156 236.984L372.31 472.981L261.836 379.226L261.254 379.911L18 551.901L23.1579 559.196L261.553 390.642L366.583 479.777L366.556 479.809L373.389 485.566L578.356 242.305L588.056 271.869Z" fill="url(#paint1_linear_40_197)"/>
<path d="M62.89 992.26L58.36 1009H52.69L50.05 998.14L47.32 1009H41.68L37.12 992.26H42.25L44.62 1004.23L47.44 992.26H52.87L55.72 1004.17L58.06 992.26H62.89ZM73.9663 1009.24C72.3263 1009.24 70.8463 1008.89 69.5263 1008.19C68.2263 1007.49 67.1963 1006.49 66.4363 1005.19C65.6963 1003.89 65.3263 1002.37 65.3263 1000.63C65.3263 998.91 65.7063 997.4 66.4663 996.1C67.2263 994.78 68.2663 993.77 69.5863 993.07C70.9063 992.37 72.3863 992.02 74.0263 992.02C75.6663 992.02 77.1463 992.37 78.4663 993.07C79.7863 993.77 80.8263 994.78 81.5863 996.1C82.3463 997.4 82.7263 998.91 82.7263 1000.63C82.7263 1002.35 82.3363 1003.87 81.5563 1005.19C80.7963 1006.49 79.7463 1007.49 78.4063 1008.19C77.0863 1008.89 75.6063 1009.24 73.9663 1009.24ZM73.9663 1004.8C74.9463 1004.8 75.7763 1004.44 76.4563 1003.72C77.1563 1003 77.5063 1001.97 77.5063 1000.63C77.5063 999.29 77.1663 998.26 76.4863 997.54C75.8263 996.82 75.0063 996.46 74.0263 996.46C73.0263 996.46 72.1963 996.82 71.5363 997.54C70.8763 998.24 70.5463 999.27 70.5463 1000.63C70.5463 1001.97 70.8663 1003 71.5063 1003.72C72.1663 1004.44 72.9863 1004.8 73.9663 1004.8ZM92.0779 995.05C92.6779 994.13 93.4279 993.41 94.3279 992.89C95.2279 992.35 96.2279 992.08 97.3279 992.08V997.51H95.9179C94.6379 997.51 93.6779 997.79 93.0379 998.35C92.3979 998.89 92.0779 999.85 92.0779 1001.23V1009H86.9479V992.26H92.0779V995.05ZM106.41 986.8V1009H101.28V986.8H106.41ZM110.608 1000.6C110.608 998.88 110.928 997.37 111.568 996.07C112.228 994.77 113.118 993.77 114.238 993.07C115.358 992.37 116.608 992.02 117.988 992.02C119.088 992.02 120.088 992.25 120.988 992.71C121.908 993.17 122.628 993.79 123.148 994.57V986.8H128.278V1009H123.148V1006.6C122.668 1007.4 121.978 1008.04 121.078 1008.52C120.198 1009 119.168 1009.24 117.988 1009.24C116.608 1009.24 115.358 1008.89 114.238 1008.19C113.118 1007.47 112.228 1006.46 111.568 1005.16C110.928 1003.84 110.608 1002.32 110.608 1000.6ZM123.148 1000.63C123.148 999.35 122.788 998.34 122.068 997.6C121.368 996.86 120.508 996.49 119.488 996.49C118.468 996.49 117.598 996.86 116.878 997.6C116.178 998.32 115.828 999.32 115.828 1000.6C115.828 1001.88 116.178 1002.9 116.878 1003.66C117.598 1004.4 118.468 1004.77 119.488 1004.77C120.508 1004.77 121.368 1004.4 122.068 1003.66C122.788 1002.92 123.148 1001.91 123.148 1000.63ZM137.059 985L136.669 991.63H133.219L132.829 985H137.059ZM148.42 1009.24C146.96 1009.24 145.66 1008.99 144.52 1008.49C143.38 1007.99 142.48 1007.31 141.82 1006.45C141.16 1005.57 140.79 1004.59 140.71 1003.51H145.78C145.84 1004.09 146.11 1004.56 146.59 1004.92C147.07 1005.28 147.66 1005.46 148.36 1005.46C149 1005.46 149.49 1005.34 149.83 1005.1C150.19 1004.84 150.37 1004.51 150.37 1004.11C150.37 1003.63 150.12 1003.28 149.62 1003.06C149.12 1002.82 148.31 1002.56 147.19 1002.28C145.99 1002 144.99 1001.71 144.19 1001.41C143.39 1001.09 142.7 1000.6 142.12 999.94C141.54 999.26 141.25 998.35 141.25 997.21C141.25 996.25 141.51 995.38 142.03 994.6C142.57 993.8 143.35 993.17 144.37 992.71C145.41 992.25 146.64 992.02 148.06 992.02C150.16 992.02 151.81 992.54 153.01 993.58C154.23 994.62 154.93 996 155.11 997.72H150.37C150.29 997.14 150.03 996.68 149.59 996.34C149.17 996 148.61 995.83 147.91 995.83C147.31 995.83 146.85 995.95 146.53 996.19C146.21 996.41 146.05 996.72 146.05 997.12C146.05 997.6 146.3 997.96 146.8 998.2C147.32 998.44 148.12 998.68 149.2 998.92C150.44 999.24 151.45 999.56 152.23 999.88C153.01 1000.18 153.69 1000.68 154.27 1001.38C154.87 1002.06 155.18 1002.98 155.2 1004.14C155.2 1005.12 154.92 1006 154.36 1006.78C153.82 1007.54 153.03 1008.14 151.99 1008.58C150.97 1009.02 149.78 1009.24 148.42 1009.24ZM189.056 992.08C191.136 992.08 192.786 992.71 194.006 993.97C195.246 995.23 195.866 996.98 195.866 999.22V1009H190.766V999.91C190.766 998.83 190.476 998 189.896 997.42C189.336 996.82 188.556 996.52 187.556 996.52C186.556 996.52 185.766 996.82 185.186 997.42C184.626 998 184.346 998.83 184.346 999.91V1009H179.246V999.91C179.246 998.83 178.956 998 178.376 997.42C177.816 996.82 177.036 996.52 176.036 996.52C175.036 996.52 174.246 996.82 173.666 997.42C173.106 998 172.826 998.83 172.826 999.91V1009H167.696V992.26H172.826V994.36C173.346 993.66 174.026 993.11 174.866 992.71C175.706 992.29 176.656 992.08 177.716 992.08C178.976 992.08 180.096 992.35 181.076 992.89C182.076 993.43 182.856 994.2 183.416 995.2C183.996 994.28 184.786 993.53 185.786 992.95C186.786 992.37 187.876 992.08 189.056 992.08ZM208.574 1009.24C206.934 1009.24 205.454 1008.89 204.134 1008.19C202.834 1007.49 201.804 1006.49 201.044 1005.19C200.304 1003.89 199.934 1002.37 199.934 1000.63C199.934 998.91 200.314 997.4 201.074 996.1C201.834 994.78 202.874 993.77 204.194 993.07C205.514 992.37 206.994 992.02 208.634 992.02C210.274 992.02 211.754 992.37 213.074 993.07C214.394 993.77 215.434 994.78 216.194 996.1C216.954 997.4 217.334 998.91 217.334 1000.63C217.334 1002.35 216.944 1003.87 216.164 1005.19C215.404 1006.49 214.354 1007.49 213.014 1008.19C211.694 1008.89 210.214 1009.24 208.574 1009.24ZM208.574 1004.8C209.554 1004.8 210.384 1004.44 211.064 1003.72C211.764 1003 212.114 1001.97 212.114 1000.63C212.114 999.29 211.774 998.26 211.094 997.54C210.434 996.82 209.614 996.46 208.634 996.46C207.634 996.46 206.804 996.82 206.144 997.54C205.484 998.24 205.154 999.27 205.154 1000.63C205.154 1001.97 205.474 1003 206.114 1003.72C206.774 1004.44 207.594 1004.8 208.574 1004.8ZM228.365 1009.24C226.905 1009.24 225.605 1008.99 224.465 1008.49C223.325 1007.99 222.425 1007.31 221.765 1006.45C221.105 1005.57 220.735 1004.59 220.655 1003.51H225.725C225.785 1004.09 226.055 1004.56 226.535 1004.92C227.015 1005.28 227.605 1005.46 228.305 1005.46C228.945 1005.46 229.435 1005.34 229.775 1005.1C230.135 1004.84 230.315 1004.51 230.315 1004.11C230.315 1003.63 230.065 1003.28 229.565 1003.06C229.065 1002.82 228.255 1002.56 227.135 1002.28C225.935 1002 224.935 1001.71 224.135 1001.41C223.335 1001.09 222.645 1000.6 222.065 999.94C221.485 999.26 221.195 998.35 221.195 997.21C221.195 996.25 221.455 995.38 221.975 994.6C222.515 993.8 223.295 993.17 224.315 992.71C225.355 992.25 226.585 992.02 228.005 992.02C230.105 992.02 231.755 992.54 232.955 993.58C234.175 994.62 234.875 996 235.055 997.72H230.315C230.235 997.14 229.975 996.68 229.535 996.34C229.115 996 228.555 995.83 227.855 995.83C227.255 995.83 226.795 995.95 226.475 996.19C226.155 996.41 225.995 996.72 225.995 997.12C225.995 997.6 226.245 997.96 226.745 998.2C227.265 998.44 228.065 998.68 229.145 998.92C230.385 999.24 231.395 999.56 232.175 999.88C232.955 1000.18 233.635 1000.68 234.215 1001.38C234.815 1002.06 235.125 1002.98 235.145 1004.14C235.145 1005.12 234.865 1006 234.305 1006.78C233.765 1007.54 232.975 1008.14 231.935 1008.58C230.915 1009.02 229.725 1009.24 228.365 1009.24ZM249.114 1004.65V1009H246.504C244.644 1009 243.194 1008.55 242.154 1007.65C241.114 1006.73 240.594 1005.24 240.594 1003.18V996.52H238.554V992.26H240.594V988.18H245.724V992.26H249.084V996.52H245.724V1003.24C245.724 1003.74 245.844 1004.1 246.084 1004.32C246.324 1004.54 246.724 1004.65 247.284 1004.65H249.114ZM270.659 1004.65V1009H268.049C266.189 1009 264.739 1008.55 263.699 1007.65C262.659 1006.73 262.139 1005.24 262.139 1003.18V996.52H260.099V992.26H262.139V988.18H267.269V992.26H270.629V996.52H267.269V1003.24C267.269 1003.74 267.389 1004.1 267.629 1004.32C267.869 1004.54 268.269 1004.65 268.829 1004.65H270.659ZM280.146 995.05C280.746 994.13 281.496 993.41 282.396 992.89C283.296 992.35 284.296 992.08 285.396 992.08V997.51H283.986C282.706 997.51 281.746 997.79 281.106 998.35C280.466 998.89 280.146 999.85 280.146 1001.23V1009H275.016V992.26H280.146V995.05ZM305.878 992.26V1009H300.748V1006.72C300.228 1007.46 299.518 1008.06 298.618 1008.52C297.738 1008.96 296.758 1009.18 295.678 1009.18C294.398 1009.18 293.268 1008.9 292.288 1008.34C291.308 1007.76 290.548 1006.93 290.008 1005.85C289.468 1004.77 289.198 1003.5 289.198 1002.04V992.26H294.298V1001.35C294.298 1002.47 294.588 1003.34 295.168 1003.96C295.748 1004.58 296.528 1004.89 297.508 1004.89C298.508 1004.89 299.298 1004.58 299.878 1003.96C300.458 1003.34 300.748 1002.47 300.748 1001.35V992.26H305.878ZM317.873 1009.24C316.413 1009.24 315.113 1008.99 313.973 1008.49C312.833 1007.99 311.933 1007.31 311.273 1006.45C310.613 1005.57 310.243 1004.59 310.163 1003.51H315.233C315.293 1004.09 315.563 1004.56 316.043 1004.92C316.523 1005.28 317.113 1005.46 317.813 1005.46C318.453 1005.46 318.943 1005.34 319.283 1005.1C319.643 1004.84 319.823 1004.51 319.823 1004.11C319.823 1003.63 319.573 1003.28 319.073 1003.06C318.573 1002.82 317.763 1002.56 316.643 1002.28C315.443 1002 314.443 1001.71 313.643 1001.41C312.843 1001.09 312.153 1000.6 311.573 999.94C310.993 999.26 310.703 998.35 310.703 997.21C310.703 996.25 310.963 995.38 311.483 994.6C312.023 993.8 312.803 993.17 313.823 992.71C314.863 992.25 316.093 992.02 317.513 992.02C319.613 992.02 321.263 992.54 322.463 993.58C323.683 994.62 324.383 996 324.563 997.72H319.823C319.743 997.14 319.483 996.68 319.043 996.34C318.623 996 318.063 995.83 317.363 995.83C316.763 995.83 316.303 995.95 315.983 996.19C315.663 996.41 315.503 996.72 315.503 997.12C315.503 997.6 315.753 997.96 316.253 998.2C316.773 998.44 317.573 998.68 318.653 998.92C319.893 999.24 320.903 999.56 321.683 999.88C322.463 1000.18 323.143 1000.68 323.723 1001.38C324.323 1002.06 324.633 1002.98 324.653 1004.14C324.653 1005.12 324.373 1006 323.813 1006.78C323.273 1007.54 322.483 1008.14 321.443 1008.58C320.423 1009.02 319.233 1009.24 317.873 1009.24ZM338.622 1004.65V1009H336.012C334.152 1009 332.702 1008.55 331.662 1007.65C330.622 1006.73 330.102 1005.24 330.102 1003.18V996.52H328.062V992.26H330.102V988.18H335.232V992.26H338.592V996.52H335.232V1003.24C335.232 1003.74 335.352 1004.1 335.592 1004.32C335.832 1004.54 336.232 1004.65 336.792 1004.65H338.622ZM358.759 1000.36C358.759 1000.84 358.729 1001.34 358.669 1001.86H347.059C347.139 1002.9 347.469 1003.7 348.049 1004.26C348.649 1004.8 349.379 1005.07 350.239 1005.07C351.519 1005.07 352.409 1004.53 352.909 1003.45H358.369C358.089 1004.55 357.579 1005.54 356.839 1006.42C356.119 1007.3 355.209 1007.99 354.109 1008.49C353.009 1008.99 351.779 1009.24 350.419 1009.24C348.779 1009.24 347.319 1008.89 346.039 1008.19C344.759 1007.49 343.759 1006.49 343.039 1005.19C342.319 1003.89 341.959 1002.37 341.959 1000.63C341.959 998.89 342.309 997.37 343.009 996.07C343.729 994.77 344.729 993.77 346.009 993.07C347.289 992.37 348.759 992.02 350.419 992.02C352.039 992.02 353.479 992.36 354.739 993.04C355.999 993.72 356.979 994.69 357.679 995.95C358.399 997.21 358.759 998.68 358.759 1000.36ZM353.509 999.01C353.509 998.13 353.209 997.43 352.609 996.91C352.009 996.39 351.259 996.13 350.359 996.13C349.499 996.13 348.769 996.38 348.169 996.88C347.589 997.38 347.229 998.09 347.089 999.01H353.509ZM361.945 1000.6C361.945 998.88 362.265 997.37 362.905 996.07C363.565 994.77 364.455 993.77 365.575 993.07C366.695 992.37 367.945 992.02 369.325 992.02C370.425 992.02 371.425 992.25 372.325 992.71C373.245 993.17 373.965 993.79 374.485 994.57V986.8H379.615V1009H374.485V1006.6C374.005 1007.4 373.315 1008.04 372.415 1008.52C371.535 1009 370.505 1009.24 369.325 1009.24C367.945 1009.24 366.695 1008.89 365.575 1008.19C364.455 1007.47 363.565 1006.46 362.905 1005.16C362.265 1003.84 361.945 1002.32 361.945 1000.6ZM374.485 1000.63C374.485 999.35 374.125 998.34 373.405 997.6C372.705 996.86 371.845 996.49 370.825 996.49C369.805 996.49 368.935 996.86 368.215 997.6C367.515 998.32 367.165 999.32 367.165 1000.6C367.165 1001.88 367.515 1002.9 368.215 1003.66C368.935 1004.4 369.805 1004.77 370.825 1004.77C371.845 1004.77 372.705 1004.4 373.405 1003.66C374.125 1002.92 374.485 1001.91 374.485 1000.63ZM401.084 996.52H398.324V1009H393.194V996.52H391.334V992.26H393.194V991.78C393.194 989.72 393.784 988.16 394.964 987.1C396.144 986.02 397.874 985.48 400.154 985.48C400.534 985.48 400.814 985.49 400.994 985.51V989.86C400.014 989.8 399.324 989.94 398.924 990.28C398.524 990.62 398.324 991.23 398.324 992.11V992.26H401.084V996.52ZM412.615 1009.24C410.975 1009.24 409.495 1008.89 408.175 1008.19C406.875 1007.49 405.845 1006.49 405.085 1005.19C404.345 1003.89 403.975 1002.37 403.975 1000.63C403.975 998.91 404.355 997.4 405.115 996.1C405.875 994.78 406.915 993.77 408.235 993.07C409.555 992.37 411.035 992.02 412.675 992.02C414.315 992.02 415.795 992.37 417.115 993.07C418.435 993.77 419.475 994.78 420.235 996.1C420.995 997.4 421.375 998.91 421.375 1000.63C421.375 1002.35 420.985 1003.87 420.205 1005.19C419.445 1006.49 418.395 1007.49 417.055 1008.19C415.735 1008.89 414.255 1009.24 412.615 1009.24ZM412.615 1004.8C413.595 1004.8 414.425 1004.44 415.105 1003.72C415.805 1003 416.155 1001.97 416.155 1000.63C416.155 999.29 415.815 998.26 415.135 997.54C414.475 996.82 413.655 996.46 412.675 996.46C411.675 996.46 410.845 996.82 410.185 997.54C409.525 998.24 409.195 999.27 409.195 1000.63C409.195 1001.97 409.515 1003 410.155 1003.72C410.815 1004.44 411.635 1004.8 412.615 1004.8ZM430.726 995.05C431.326 994.13 432.076 993.41 432.976 992.89C433.876 992.35 434.876 992.08 435.976 992.08V997.51H434.566C433.286 997.51 432.326 997.79 431.686 998.35C431.046 998.89 430.726 999.85 430.726 1001.23V1009H425.596V992.26H430.726V995.05ZM455.708 1000.36C455.708 1000.84 455.678 1001.34 455.618 1001.86H444.008C444.088 1002.9 444.418 1003.7 444.998 1004.26C445.598 1004.8 446.328 1005.07 447.188 1005.07C448.468 1005.07 449.358 1004.53 449.858 1003.45H455.318C455.038 1004.55 454.528 1005.54 453.788 1006.42C453.068 1007.3 452.158 1007.99 451.058 1008.49C449.958 1008.99 448.728 1009.24 447.368 1009.24C445.728 1009.24 444.268 1008.89 442.988 1008.19C441.708 1007.49 440.708 1006.49 439.988 1005.19C439.268 1003.89 438.908 1002.37 438.908 1000.63C438.908 998.89 439.258 997.37 439.958 996.07C440.678 994.77 441.678 993.77 442.958 993.07C444.238 992.37 445.708 992.02 447.368 992.02C448.988 992.02 450.428 992.36 451.688 993.04C452.948 993.72 453.928 994.69 454.628 995.95C455.348 997.21 455.708 998.68 455.708 1000.36ZM450.458 999.01C450.458 998.13 450.158 997.43 449.558 996.91C448.958 996.39 448.208 996.13 447.308 996.13C446.448 996.13 445.718 996.38 445.118 996.88C444.538 997.38 444.178 998.09 444.038 999.01H450.458ZM469.815 1009L466.605 1004.35L463.905 1009H458.355L463.875 1000.45L458.205 992.26H463.965L467.175 996.88L469.875 992.26H475.425L469.815 1000.69L475.575 1009H469.815ZM492.039 994.63C492.519 993.85 493.209 993.22 494.109 992.74C495.009 992.26 496.039 992.02 497.199 992.02C498.579 992.02 499.829 992.37 500.949 993.07C502.069 993.77 502.949 994.77 503.589 996.07C504.249 997.37 504.579 998.88 504.579 1000.6C504.579 1002.32 504.249 1003.84 503.589 1005.16C502.949 1006.46 502.069 1007.47 500.949 1008.19C499.829 1008.89 498.579 1009.24 497.199 1009.24C496.019 1009.24 494.989 1009.01 494.109 1008.55C493.229 1008.07 492.539 1007.44 492.039 1006.66V1009H486.909V986.8H492.039V994.63ZM499.359 1000.6C499.359 999.32 498.999 998.32 498.279 997.6C497.579 996.86 496.709 996.49 495.669 996.49C494.649 996.49 493.779 996.86 493.059 997.6C492.359 998.34 492.009 999.35 492.009 1000.63C492.009 1001.91 492.359 1002.92 493.059 1003.66C493.779 1004.4 494.649 1004.77 495.669 1004.77C496.689 1004.77 497.559 1004.4 498.279 1003.66C498.999 1002.9 499.359 1001.88 499.359 1000.6ZM513.9 995.05C514.5 994.13 515.25 993.41 516.15 992.89C517.05 992.35 518.05 992.08 519.15 992.08V997.51H517.74C516.46 997.51 515.5 997.79 514.86 998.35C514.22 998.89 513.9 999.85 513.9 1001.23V1009H508.77V992.26H513.9V995.05ZM530.722 1009.24C529.082 1009.24 527.602 1008.89 526.282 1008.19C524.982 1007.49 523.952 1006.49 523.192 1005.19C522.452 1003.89 522.082 1002.37 522.082 1000.63C522.082 998.91 522.462 997.4 523.222 996.1C523.982 994.78 525.022 993.77 526.342 993.07C527.662 992.37 529.142 992.02 530.782 992.02C532.422 992.02 533.902 992.37 535.222 993.07C536.542 993.77 537.582 994.78 538.342 996.1C539.102 997.4 539.482 998.91 539.482 1000.63C539.482 1002.35 539.092 1003.87 538.312 1005.19C537.552 1006.49 536.502 1007.49 535.162 1008.19C533.842 1008.89 532.362 1009.24 530.722 1009.24ZM530.722 1004.8C531.702 1004.8 532.532 1004.44 533.212 1003.72C533.912 1003 534.262 1001.97 534.262 1000.63C534.262 999.29 533.922 998.26 533.242 997.54C532.582 996.82 531.762 996.46 530.782 996.46C529.782 996.46 528.952 996.82 528.292 997.54C527.632 998.24 527.302 999.27 527.302 1000.63C527.302 1001.97 527.622 1003 528.262 1003.72C528.922 1004.44 529.742 1004.8 530.722 1004.8ZM553.934 1009L548.834 1001.98V1009H543.704V986.8H548.834V999.07L553.904 992.26H560.234L553.274 1000.66L560.294 1009H553.934ZM579.529 1000.36C579.529 1000.84 579.499 1001.34 579.439 1001.86H567.829C567.909 1002.9 568.239 1003.7 568.819 1004.26C569.419 1004.8 570.149 1005.07 571.009 1005.07C572.289 1005.07 573.179 1004.53 573.679 1003.45H579.139C578.859 1004.55 578.349 1005.54 577.609 1006.42C576.889 1007.3 575.979 1007.99 574.879 1008.49C573.779 1008.99 572.549 1009.24 571.189 1009.24C569.549 1009.24 568.089 1008.89 566.809 1008.19C565.529 1007.49 564.529 1006.49 563.809 1005.19C563.089 1003.89 562.729 1002.37 562.729 1000.63C562.729 998.89 563.079 997.37 563.779 996.07C564.499 994.77 565.499 993.77 566.779 993.07C568.059 992.37 569.529 992.02 571.189 992.02C572.809 992.02 574.249 992.36 575.509 993.04C576.769 993.72 577.749 994.69 578.449 995.95C579.169 997.21 579.529 998.68 579.529 1000.36ZM574.279 999.01C574.279 998.13 573.979 997.43 573.379 996.91C572.779 996.39 572.029 996.13 571.129 996.13C570.269 996.13 569.539 996.38 568.939 996.88C568.359 997.38 567.999 998.09 567.859 999.01H574.279ZM588.865 995.05C589.465 994.13 590.215 993.41 591.115 992.89C592.015 992.35 593.015 992.08 594.115 992.08V997.51H592.705C591.425 997.51 590.465 997.79 589.825 998.35C589.185 998.89 588.865 999.85 588.865 1001.23V1009H583.735V992.26H588.865V995.05Z" fill="#103C87"/>
<defs>
<linearGradient id="paint0_linear_40_197" x1="46.9222" y1="387.963" x2="503.922" y2="387.963" gradientUnits="userSpaceOnUse">
<stop stop-color="#D31D1A"/>
<stop offset="0.182292" stop-color="#C31A19"/>
<stop offset="0.322917" stop-color="#F5A500"/>
<stop offset="0.510417" stop-color="#A2C729"/>
<stop offset="0.65625" stop-color="#5A831C"/>
<stop offset="0.828125" stop-color="#24340E"/>
</linearGradient>
<linearGradient id="paint1_linear_40_197" x1="18" y1="377" x2="654.5" y2="377" gradientUnits="userSpaceOnUse">
<stop offset="0.191495" stop-color="#D21D1A"/>
<stop offset="0.281536" stop-color="#EE9204"/>
<stop offset="0.362788" stop-color="#B3C021"/>
<stop offset="0.542197" stop-color="#B3C021"/>
<stop offset="0.641573" stop-color="#6A931F"/>
<stop offset="0.833333" stop-color="#24340E"/>
<stop offset="1" stop-color="#24340E"/>
</linearGradient>
</defs>
</svg>
