<svg width="24" height="24" viewBox="0 0 24 24" fill="none" xmlns="http://www.w3.org/2000/svg">
<g id="subway:coin">
<path id="Vector" d="M12 11.4001C18.6281 11.4001 24 9.15947 24 6.39853C24 3.6376 18.6281 1.39697 12 1.39697C5.37188 1.39697 0 3.6376 0 6.39853C0 9.15947 5.37188 11.4001 12 11.4001ZM12 19.397C7.42031 19.397 3.37031 18.2954 0.815625 16.5938C0.295312 17.1563 0 17.761 0 18.3985C0 21.1595 5.37188 23.4001 12 23.4001C18.6281 23.4001 24 21.1595 24 18.3985C24 17.761 23.7047 17.1563 23.1844 16.5985C20.6297 18.2954 16.5797 19.397 12 19.397ZM12 13.397C7.42031 13.397 3.37031 12.2954 0.815625 10.5938C0.295312 11.1563 0 11.761 0 12.3985C0 15.1595 5.37188 17.4001 12 17.4001C18.6281 17.4001 24 15.1595 24 12.3985C24 11.761 23.7047 11.1563 23.1844 10.5985C20.6297 12.2954 16.5797 13.397 12 13.397Z" fill="#985EFF"/>
</g>
</svg>
