<svg width="32" height="32" viewBox="0 0 32 32" fill="none" xmlns="http://www.w3.org/2000/svg">
<rect width="32" height="32" rx="5" fill="#985EFF"/>
<path d="M11.0792 13.59C11.1859 12.8633 11.3892 12.23 11.6892 11.69C11.9959 11.15 12.3726 10.7 12.8192 10.34C13.2726 9.98 13.7892 9.71333 14.3692 9.54C14.9492 9.36 15.5726 9.27 16.2392 9.27C16.9592 9.27 17.5992 9.37333 18.1592 9.58C18.7192 9.78 19.1926 10.0533 19.5792 10.4C19.9659 10.7467 20.2592 11.15 20.4592 11.61C20.6592 12.0633 20.7592 12.5433 20.7592 13.05C20.7592 13.51 20.7126 13.9167 20.6192 14.27C20.5259 14.6167 20.3859 14.92 20.1992 15.18C20.0192 15.4333 19.7926 15.65 19.5192 15.83C19.2526 16.0033 18.9459 16.15 18.5992 16.27C20.2126 16.8367 21.0192 17.9367 21.0192 19.57C21.0192 20.3433 20.8792 21.0167 20.5992 21.59C20.3192 22.1633 19.9426 22.64 19.4692 23.02C19.0026 23.4 18.4592 23.6867 17.8392 23.88C17.2192 24.0667 16.5726 24.16 15.8992 24.16C15.2059 24.16 14.5892 24.0867 14.0492 23.94C13.5092 23.7867 13.0292 23.5533 12.6092 23.24C12.1892 22.92 11.8192 22.5133 11.4992 22.02C11.1859 21.5267 10.9126 20.94 10.6792 20.26L12.0592 19.7C12.4192 19.56 12.7526 19.5233 13.0592 19.59C13.3659 19.6567 13.5859 19.81 13.7192 20.05C14.0192 20.6033 14.3359 21.0067 14.6692 21.26C15.0092 21.5067 15.4059 21.63 15.8592 21.63C16.2059 21.63 16.5059 21.5733 16.7592 21.46C17.0192 21.34 17.2326 21.19 17.3992 21.01C17.5726 20.8233 17.7026 20.6133 17.7892 20.38C17.8759 20.1467 17.9192 19.91 17.9192 19.67C17.9192 19.3567 17.8959 19.0767 17.8492 18.83C17.8092 18.5767 17.6892 18.36 17.4892 18.18C17.2892 18 16.9859 17.8633 16.5792 17.77C16.1792 17.67 15.6192 17.62 14.8992 17.62V15.48C15.5059 15.48 15.9959 15.4333 16.3692 15.34C16.7426 15.2467 17.0292 15.12 17.2292 14.96C17.4359 14.7933 17.5726 14.5933 17.6392 14.36C17.7059 14.1267 17.7392 13.87 17.7392 13.59C17.7392 13.0167 17.5992 12.5767 17.3192 12.27C17.0459 11.9567 16.6259 11.8 16.0592 11.8C15.5992 11.8 15.2092 11.9233 14.8892 12.17C14.5759 12.41 14.3592 12.71 14.2392 13.07C14.0992 13.4367 13.9159 13.68 13.6892 13.8C13.4626 13.92 13.1392 13.9467 12.7192 13.88L11.0792 13.59Z" fill="white"/>
</svg>
