<svg
    width="32"
    height="32"
    viewBox="0 0 32 32"
    fill="none"
    xmlns="http://www.w3.org/2000/svg"
>
    <path
        d="M25.3335 8.66683C23.1335 8.66683 21.3335 8.06683 21.3335 7.3335V8.66683C21.3335 9.40016 23.1335 10.0002 25.3335 10.0002C27.5335 10.0002 29.3335 9.40016 29.3335 8.66683V7.3335C29.3335 8.06683 27.5335 8.66683 25.3335 8.66683Z"
        fill="#985EFF"
    />
    <path
        d="M25.3335 6.66683C23.1335 6.66683 21.3335 6.06683 21.3335 5.3335V6.66683C21.3335 7.40016 23.1335 8.00016 25.3335 8.00016C27.5335 8.00016 29.3335 7.40016 29.3335 6.66683V5.3335C29.3335 6.06683 27.5335 6.66683 25.3335 6.66683Z"
        fill="#985EFF"
    />
    <path
        d="M25.3335 10.6668C23.1335 10.6668 21.3335 10.0668 21.3335 9.3335V10.6668C21.3335 11.4002 23.1335 12.0002 25.3335 12.0002C27.5335 12.0002 29.3335 11.4002 29.3335 10.6668V9.3335C29.3335 10.0668 27.5335 10.6668 25.3335 10.6668Z"
        fill="#985EFF"
    />
    <path
        d="M25.3335 12.6668C23.1335 12.6668 21.3335 12.0668 21.3335 11.3335V12.6668C21.3335 13.4002 23.1335 14.0002 25.3335 14.0002C27.5335 14.0002 29.3335 13.4002 29.3335 12.6668V11.3335C29.3335 12.0668 27.5335 12.6668 25.3335 12.6668Z"
        fill="#985EFF"
    />
    <path
        d="M25.3335 14.6668C23.1335 14.6668 21.3335 14.0668 21.3335 13.3335V14.6668C21.3335 15.4002 23.1335 16.0002 25.3335 16.0002C27.5335 16.0002 29.3335 15.4002 29.3335 14.6668V13.3335C29.3335 14.0668 27.5335 14.6668 25.3335 14.6668Z"
        fill="#985EFF"
    />
    <path
        d="M25.3335 16.6668C23.1335 16.6668 21.3335 16.0668 21.3335 15.3335V16.6668C21.3335 17.4002 23.1335 18.0002 25.3335 18.0002C27.5335 18.0002 29.3335 17.4002 29.3335 16.6668V15.3335C29.3335 16.0668 27.5335 16.6668 25.3335 16.6668Z"
        fill="#985EFF"
    />
    <path
        d="M25.3335 18.6668C23.1335 18.6668 21.3335 18.0668 21.3335 17.3335V18.6668C21.3335 19.4002 23.1335 20.0002 25.3335 20.0002C27.5335 20.0002 29.3335 19.4002 29.3335 18.6668V17.3335C29.3335 18.0668 27.5335 18.6668 25.3335 18.6668Z"
        fill="#985EFF"
    />
    <path
        d="M25.3335 20.6668C23.1335 20.6668 21.3335 20.0668 21.3335 19.3335V20.6668C21.3335 21.4002 23.1335 22.0002 25.3335 22.0002C27.5335 22.0002 29.3335 21.4002 29.3335 20.6668V19.3335C29.3335 20.0668 27.5335 20.6668 25.3335 20.6668Z"
        fill="#985EFF"
    />
    <path
        d="M25.3335 22.6668C23.1335 22.6668 21.3335 22.0668 21.3335 21.3335V22.6668C21.3335 23.4002 23.1335 24.0002 25.3335 24.0002C27.5335 24.0002 29.3335 23.4002 29.3335 22.6668V21.3335C29.3335 22.0668 27.5335 22.6668 25.3335 22.6668Z"
        fill="#985EFF"
    />
    <path
        d="M25.3335 24.6668C23.1335 24.6668 21.3335 24.0668 21.3335 23.3335V24.6668C21.3335 25.4002 23.1335 26.0002 25.3335 26.0002C27.5335 26.0002 29.3335 25.4002 29.3335 24.6668V23.3335C29.3335 24.0668 27.5335 24.6668 25.3335 24.6668Z"
        fill="#985EFF"
    />
    <path
        d="M25.3335 26.6668C23.1335 26.6668 21.3335 26.0668 21.3335 25.3335V26.6668C21.3335 27.4002 23.1335 28.0002 25.3335 28.0002C27.5335 28.0002 29.3335 27.4002 29.3335 26.6668V25.3335C29.3335 26.0668 27.5335 26.6668 25.3335 26.6668Z"
        fill="#985EFF"
    />
    <path
        d="M25.3335 6.66667C27.5426 6.66667 29.3335 6.06971 29.3335 5.33333C29.3335 4.59695 27.5426 4 25.3335 4C23.1244 4 21.3335 4.59695 21.3335 5.33333C21.3335 6.06971 23.1244 6.66667 25.3335 6.66667Z"
        fill="#C5AEFF"
    />
    <path
        d="M25.3335 8C23.4668 8 21.9335 7.6 21.4668 7C21.4002 7.13333 21.3335 7.2 21.3335 7.33333C21.3335 8.06667 23.1335 8.66667 25.3335 8.66667C27.5335 8.66667 29.3335 8.06667 29.3335 7.33333C29.3335 7.2 29.2668 7.13333 29.2002 7C28.7335 7.6 27.2002 8 25.3335 8Z"
        fill="#C5AEFF"
    />
    <path
        d="M25.3335 10C23.4668 10 21.9335 9.6 21.4668 9C21.4002 9.13333 21.3335 9.2 21.3335 9.33333C21.3335 10.0667 23.1335 10.6667 25.3335 10.6667C27.5335 10.6667 29.3335 10.0667 29.3335 9.33333C29.3335 9.2 29.2668 9.13333 29.2002 9C28.7335 9.6 27.2002 10 25.3335 10Z"
        fill="#C5AEFF"
    />
    <path
        d="M25.3335 12C23.4668 12 21.9335 11.6 21.4668 11C21.4002 11.1333 21.3335 11.2 21.3335 11.3333C21.3335 12.0667 23.1335 12.6667 25.3335 12.6667C27.5335 12.6667 29.3335 12.0667 29.3335 11.3333C29.3335 11.2 29.2668 11.1333 29.2002 11C28.7335 11.6 27.2002 12 25.3335 12Z"
        fill="#C5AEFF"
    />
    <path
        d="M25.3335 14C23.4668 14 21.9335 13.6 21.4668 13C21.4002 13.1333 21.3335 13.2 21.3335 13.3333C21.3335 14.0667 23.1335 14.6667 25.3335 14.6667C27.5335 14.6667 29.3335 14.0667 29.3335 13.3333C29.3335 13.2 29.2668 13.1333 29.2002 13C28.7335 13.6 27.2002 14 25.3335 14Z"
        fill="#C5AEFF"
    />
    <path
        d="M25.3335 16C23.4668 16 21.9335 15.6 21.4668 15C21.4002 15.1333 21.3335 15.2 21.3335 15.3333C21.3335 16.0667 23.1335 16.6667 25.3335 16.6667C27.5335 16.6667 29.3335 16.0667 29.3335 15.3333C29.3335 15.2 29.2668 15.1333 29.2002 15C28.7335 15.6 27.2002 16 25.3335 16Z"
        fill="#C5AEFF"
    />
    <path
        d="M25.3335 18C23.4668 18 21.9335 17.6 21.4668 17C21.4002 17.1333 21.3335 17.2 21.3335 17.3333C21.3335 18.0667 23.1335 18.6667 25.3335 18.6667C27.5335 18.6667 29.3335 18.0667 29.3335 17.3333C29.3335 17.2 29.2668 17.1333 29.2002 17C28.7335 17.6 27.2002 18 25.3335 18Z"
        fill="#C5AEFF"
    />
    <path
        d="M25.3335 20C23.4668 20 21.9335 19.6 21.4668 19C21.4002 19.1333 21.3335 19.2 21.3335 19.3333C21.3335 20.0667 23.1335 20.6667 25.3335 20.6667C27.5335 20.6667 29.3335 20.0667 29.3335 19.3333C29.3335 19.2 29.2668 19.1333 29.2002 19C28.7335 19.6 27.2002 20 25.3335 20Z"
        fill="#C5AEFF"
    />
    <path
        d="M25.3335 22C23.4668 22 21.9335 21.6 21.4668 21C21.4002 21.1333 21.3335 21.2 21.3335 21.3333C21.3335 22.0667 23.1335 22.6667 25.3335 22.6667C27.5335 22.6667 29.3335 22.0667 29.3335 21.3333C29.3335 21.2 29.2668 21.1333 29.2002 21C28.7335 21.6 27.2002 22 25.3335 22Z"
        fill="#C5AEFF"
    />
    <path
        d="M25.3335 24C23.4668 24 21.9335 23.6 21.4668 23C21.4002 23.1333 21.3335 23.2 21.3335 23.3333C21.3335 24.0667 23.1335 24.6667 25.3335 24.6667C27.5335 24.6667 29.3335 24.0667 29.3335 23.3333C29.3335 23.2 29.2668 23.1333 29.2002 23C28.7335 23.6 27.2002 24 25.3335 24Z"
        fill="#C5AEFF"
    />
    <path
        d="M25.3335 26C23.4668 26 21.9335 25.6 21.4668 25C21.4002 25.1333 21.3335 25.2 21.3335 25.3333C21.3335 26.0667 23.1335 26.6667 25.3335 26.6667C27.5335 26.6667 29.3335 26.0667 29.3335 25.3333C29.3335 25.2 29.2668 25.1333 29.2002 25C28.7335 25.6 27.2002 26 25.3335 26Z"
        fill="#C5AEFF"
    />
    <path
        d="M6.6665 12.6668C4.4665 12.6668 2.6665 12.0668 2.6665 11.3335V12.6668C2.6665 13.4002 4.4665 14.0002 6.6665 14.0002C8.8665 14.0002 10.6665 13.4002 10.6665 12.6668V11.3335C10.6665 12.0668 8.8665 12.6668 6.6665 12.6668Z"
        fill="#985EFF"
    />
    <path
        d="M6.6665 10.6668C4.4665 10.6668 2.6665 10.0668 2.6665 9.3335V10.6668C2.6665 11.4002 4.4665 12.0002 6.6665 12.0002C8.8665 12.0002 10.6665 11.4002 10.6665 10.6668V9.3335C10.6665 10.0668 8.8665 10.6668 6.6665 10.6668Z"
        fill="#985EFF"
    />
    <path
        d="M6.6665 14.6668C4.4665 14.6668 2.6665 14.0668 2.6665 13.3335V14.6668C2.6665 15.4002 4.4665 16.0002 6.6665 16.0002C8.8665 16.0002 10.6665 15.4002 10.6665 14.6668V13.3335C10.6665 14.0668 8.8665 14.6668 6.6665 14.6668Z"
        fill="#985EFF"
    />
    <path
        d="M6.6665 16.6668C4.4665 16.6668 2.6665 16.0668 2.6665 15.3335V16.6668C2.6665 17.4002 4.4665 18.0002 6.6665 18.0002C8.8665 18.0002 10.6665 17.4002 10.6665 16.6668V15.3335C10.6665 16.0668 8.8665 16.6668 6.6665 16.6668Z"
        fill="#985EFF"
    />
    <path
        d="M6.6665 18.6668C4.4665 18.6668 2.6665 18.0668 2.6665 17.3335V18.6668C2.6665 19.4002 4.4665 20.0002 6.6665 20.0002C8.8665 20.0002 10.6665 19.4002 10.6665 18.6668V17.3335C10.6665 18.0668 8.8665 18.6668 6.6665 18.6668Z"
        fill="#985EFF"
    />
    <path
        d="M6.6665 20.6668C4.4665 20.6668 2.6665 20.0668 2.6665 19.3335V20.6668C2.6665 21.4002 4.4665 22.0002 6.6665 22.0002C8.8665 22.0002 10.6665 21.4002 10.6665 20.6668V19.3335C10.6665 20.0668 8.8665 20.6668 6.6665 20.6668Z"
        fill="#985EFF"
    />
    <path
        d="M6.6665 22.6668C4.4665 22.6668 2.6665 22.0668 2.6665 21.3335V22.6668C2.6665 23.4002 4.4665 24.0002 6.6665 24.0002C8.8665 24.0002 10.6665 23.4002 10.6665 22.6668V21.3335C10.6665 22.0668 8.8665 22.6668 6.6665 22.6668Z"
        fill="#985EFF"
    />
    <path
        d="M6.6665 24.6668C4.4665 24.6668 2.6665 24.0668 2.6665 23.3335V24.6668C2.6665 25.4002 4.4665 26.0002 6.6665 26.0002C8.8665 26.0002 10.6665 25.4002 10.6665 24.6668V23.3335C10.6665 24.0668 8.8665 24.6668 6.6665 24.6668Z"
        fill="#985EFF"
    />
    <path
        d="M6.6665 26.6668C4.4665 26.6668 2.6665 26.0668 2.6665 25.3335V26.6668C2.6665 27.4002 4.4665 28.0002 6.6665 28.0002C8.8665 28.0002 10.6665 27.4002 10.6665 26.6668V25.3335C10.6665 26.0668 8.8665 26.6668 6.6665 26.6668Z"
        fill="#985EFF"
    />
    <path
        d="M6.6665 10.6667C8.87564 10.6667 10.6665 10.0697 10.6665 9.33333C10.6665 8.59695 8.87564 8 6.6665 8C4.45736 8 2.6665 8.59695 2.6665 9.33333C2.6665 10.0697 4.45736 10.6667 6.6665 10.6667Z"
        fill="#C5AEFF"
    />
    <path
        d="M6.6665 12C4.79984 12 3.2665 11.6 2.79984 11C2.73317 11.1333 2.6665 11.2 2.6665 11.3333C2.6665 12.0667 4.4665 12.6667 6.6665 12.6667C8.8665 12.6667 10.6665 12.0667 10.6665 11.3333C10.6665 11.2 10.5998 11.1333 10.5332 11C10.0665 11.6 8.53317 12 6.6665 12Z"
        fill="#C5AEFF"
    />
    <path
        d="M6.6665 14C4.79984 14 3.2665 13.6 2.79984 13C2.73317 13.1333 2.6665 13.2 2.6665 13.3333C2.6665 14.0667 4.4665 14.6667 6.6665 14.6667C8.8665 14.6667 10.6665 14.0667 10.6665 13.3333C10.6665 13.2 10.5998 13.1333 10.5332 13C10.0665 13.6 8.53317 14 6.6665 14Z"
        fill="#C5AEFF"
    />
    <path
        d="M6.6665 16C4.79984 16 3.2665 15.6 2.79984 15C2.73317 15.1333 2.6665 15.2 2.6665 15.3333C2.6665 16.0667 4.4665 16.6667 6.6665 16.6667C8.8665 16.6667 10.6665 16.0667 10.6665 15.3333C10.6665 15.2 10.5998 15.1333 10.5332 15C10.0665 15.6 8.53317 16 6.6665 16Z"
        fill="#C5AEFF"
    />
    <path
        d="M6.6665 18C4.79984 18 3.2665 17.6 2.79984 17C2.73317 17.1333 2.6665 17.2 2.6665 17.3333C2.6665 18.0667 4.4665 18.6667 6.6665 18.6667C8.8665 18.6667 10.6665 18.0667 10.6665 17.3333C10.6665 17.2 10.5998 17.1333 10.5332 17C10.0665 17.6 8.53317 18 6.6665 18Z"
        fill="#C5AEFF"
    />
    <path
        d="M6.6665 20C4.79984 20 3.2665 19.6 2.79984 19C2.73317 19.1333 2.6665 19.2 2.6665 19.3333C2.6665 20.0667 4.4665 20.6667 6.6665 20.6667C8.8665 20.6667 10.6665 20.0667 10.6665 19.3333C10.6665 19.2 10.5998 19.1333 10.5332 19C10.0665 19.6 8.53317 20 6.6665 20Z"
        fill="#C5AEFF"
    />
    <path
        d="M6.6665 22C4.79984 22 3.2665 21.6 2.79984 21C2.73317 21.1333 2.6665 21.2 2.6665 21.3333C2.6665 22.0667 4.4665 22.6667 6.6665 22.6667C8.8665 22.6667 10.6665 22.0667 10.6665 21.3333C10.6665 21.2 10.5998 21.1333 10.5332 21C10.0665 21.6 8.53317 22 6.6665 22Z"
        fill="#C5AEFF"
    />
    <path
        d="M6.6665 24C4.79984 24 3.2665 23.6 2.79984 23C2.73317 23.1333 2.6665 23.2 2.6665 23.3333C2.6665 24.0667 4.4665 24.6667 6.6665 24.6667C8.8665 24.6667 10.6665 24.0667 10.6665 23.3333C10.6665 23.2 10.5998 23.1333 10.5332 23C10.0665 23.6 8.53317 24 6.6665 24Z"
        fill="#C5AEFF"
    />
    <path
        d="M6.6665 26C4.79984 26 3.2665 25.6 2.79984 25C2.73317 25.1333 2.6665 25.2 2.6665 25.3333C2.6665 26.0667 4.4665 26.6667 6.6665 26.6667C8.8665 26.6667 10.6665 26.0667 10.6665 25.3333C10.6665 25.2 10.5998 25.1333 10.5332 25C10.0665 25.6 8.53317 26 6.6665 26Z"
        fill="#C5AEFF"
    />
    <path
        d="M16 18.6668C13.8 18.6668 12 18.0668 12 17.3335V18.6668C12 19.4002 13.8 20.0002 16 20.0002C18.2 20.0002 20 19.4002 20 18.6668V17.3335C20 18.0668 18.2 18.6668 16 18.6668Z"
        fill="#985EFF"
    />
    <path
        d="M16 16.6668C13.8 16.6668 12 16.0668 12 15.3335V16.6668C12 17.4002 13.8 18.0002 16 18.0002C18.2 18.0002 20 17.4002 20 16.6668V15.3335C20 16.0668 18.2 16.6668 16 16.6668Z"
        fill="#985EFF"
    />
    <path
        d="M16 20.6668C13.8 20.6668 12 20.0668 12 19.3335V20.6668C12 21.4002 13.8 22.0002 16 22.0002C18.2 22.0002 20 21.4002 20 20.6668V19.3335C20 20.0668 18.2 20.6668 16 20.6668Z"
        fill="#985EFF"
    />
    <path
        d="M16 22.6668C13.8 22.6668 12 22.0668 12 21.3335V22.6668C12 23.4002 13.8 24.0002 16 24.0002C18.2 24.0002 20 23.4002 20 22.6668V21.3335C20 22.0668 18.2 22.6668 16 22.6668Z"
        fill="#985EFF"
    />
    <path
        d="M16 24.6668C13.8 24.6668 12 24.0668 12 23.3335V24.6668C12 25.4002 13.8 26.0002 16 26.0002C18.2 26.0002 20 25.4002 20 24.6668V23.3335C20 24.0668 18.2 24.6668 16 24.6668Z"
        fill="#985EFF"
    />
    <path
        d="M16 26.6668C13.8 26.6668 12 26.0668 12 25.3335V26.6668C12 27.4002 13.8 28.0002 16 28.0002C18.2 28.0002 20 27.4002 20 26.6668V25.3335C20 26.0668 18.2 26.6668 16 26.6668Z"
        fill="#985EFF"
    />
    <path
        d="M16 16.6667C18.2091 16.6667 20 16.0697 20 15.3333C20 14.597 18.2091 14 16 14C13.7909 14 12 14.597 12 15.3333C12 16.0697 13.7909 16.6667 16 16.6667Z"
        fill="#C5AEFF"
    />
    <path
        d="M16 18C14.1333 18 12.6 17.6 12.1333 17C12.0667 17.1333 12 17.2 12 17.3333C12 18.0667 13.8 18.6667 16 18.6667C18.2 18.6667 20 18.0667 20 17.3333C20 17.2 19.9333 17.1333 19.8667 17C19.4 17.6 17.8667 18 16 18Z"
        fill="#C5AEFF"
    />
    <path
        d="M16 20C14.1333 20 12.6 19.6 12.1333 19C12.0667 19.1333 12 19.2 12 19.3333C12 20.0667 13.8 20.6667 16 20.6667C18.2 20.6667 20 20.0667 20 19.3333C20 19.2 19.9333 19.1333 19.8667 19C19.4 19.6 17.8667 20 16 20Z"
        fill="#C5AEFF"
    />
    <path
        d="M16 22C14.1333 22 12.6 21.6 12.1333 21C12.0667 21.1333 12 21.2 12 21.3333C12 22.0667 13.8 22.6667 16 22.6667C18.2 22.6667 20 22.0667 20 21.3333C20 21.2 19.9333 21.1333 19.8667 21C19.4 21.6 17.8667 22 16 22Z"
        fill="#C5AEFF"
    />
    <path
        d="M16 24C14.1333 24 12.6 23.6 12.1333 23C12.0667 23.1333 12 23.2 12 23.3333C12 24.0667 13.8 24.6667 16 24.6667C18.2 24.6667 20 24.0667 20 23.3333C20 23.2 19.9333 23.1333 19.8667 23C19.4 23.6 17.8667 24 16 24Z"
        fill="#C5AEFF"
    />
    <path
        d="M16 26C14.1333 26 12.6 25.6 12.1333 25C12.0667 25.1333 12 25.2 12 25.3333C12 26.0667 13.8 26.6667 16 26.6667C18.2 26.6667 20 26.0667 20 25.3333C20 25.2 19.9333 25.1333 19.8667 25C19.4 25.6 17.8667 26 16 26Z"
        fill="#C5AEFF"
    />
</svg>