<svg width="32" height="32" viewBox="0 0 32 32" fill="none" xmlns="http://www.w3.org/2000/svg">
<rect width="32" height="32" rx="5" fill="#985EFF"/>
<path d="M19.9592 21.2C20.2926 21.2 20.5559 21.2933 20.7492 21.48C20.9426 21.66 21.0392 21.9 21.0392 22.2V24H10.7992V23C10.7992 22.8067 10.8392 22.6 10.9192 22.38C10.9992 22.16 11.1392 21.96 11.3392 21.78L15.5392 17.55C15.8992 17.19 16.2126 16.8467 16.4792 16.52C16.7459 16.1933 16.9659 15.8733 17.1392 15.56C17.3126 15.24 17.4426 14.9233 17.5292 14.61C17.6159 14.29 17.6592 13.9533 17.6592 13.6C17.6592 13.02 17.5192 12.5767 17.2392 12.27C16.9659 11.9567 16.5459 11.8 15.9792 11.8C15.5192 11.8 15.1292 11.9233 14.8092 12.17C14.4959 12.41 14.2792 12.71 14.1592 13.07C14.0192 13.4367 13.8359 13.68 13.6092 13.8C13.3826 13.92 13.0592 13.9467 12.6392 13.88L10.9992 13.59C11.1059 12.8633 11.3092 12.23 11.6092 11.69C11.9159 11.15 12.2926 10.7 12.7392 10.34C13.1926 9.98 13.7092 9.71333 14.2892 9.54C14.8692 9.36 15.4926 9.27 16.1592 9.27C16.8792 9.27 17.5259 9.37667 18.0992 9.59C18.6792 9.79667 19.1726 10.0867 19.5792 10.46C19.9859 10.8333 20.2959 11.28 20.5092 11.8C20.7292 12.3133 20.8392 12.88 20.8392 13.5C20.8392 14.0333 20.7626 14.5267 20.6092 14.98C20.4626 15.4333 20.2592 15.8667 19.9992 16.28C19.7392 16.6867 19.4359 17.0833 19.0892 17.47C18.7492 17.85 18.3859 18.2367 17.9992 18.63L15.1492 21.55C15.5159 21.4367 15.8792 21.35 16.2392 21.29C16.5992 21.23 16.9326 21.2 17.2392 21.2H19.9592Z" fill="white"/>
</svg>
