<?xml version="1.0" encoding="UTF-8"?>
<!DOCTYPE svg PUBLIC "-//W3C//DTD SVG 1.1//EN" "http://www.w3.org/Graphics/SVG/1.1/DTD/svg11.dtd">
<svg xmlns="http://www.w3.org/2000/svg" version="1.1" width="2338px" height="2160px" style="shape-rendering:geometricPrecision; text-rendering:geometricPrecision; image-rendering:optimizeQuality; fill-rule:evenodd; clip-rule:evenodd" xmlns:xlink="http://www.w3.org/1999/xlink">
<g><path style="opacity:1" fill="#975efe" d="M 10.5,29.5 C 255.167,29.3333 499.834,29.5 744.5,30C 913.692,253.025 1082.69,476.191 1251.5,699.5C 1447.51,476.655 1643.18,253.488 1838.5,30C 1957.17,29.1667 2075.83,29.3333 2194.5,30.5C 1935.26,326.646 1676.26,622.979 1417.5,919.5C 1722.17,1322.5 2026.83,1725.5 2331.5,2128.5C 2092.83,2129.67 1854.17,2129.83 1615.5,2129C 1428.33,1884.5 1241.17,1640 1054,1395.5C 840.167,1640 626.333,1884.5 412.5,2129C 293.833,2129.67 175.167,2129.67 56.5,2129C 56.1667,2128.67 55.8333,2128.33 55.5,2128C 332.833,1811.33 610.167,1494.67 887.5,1178C 595.455,796.077 303.288,414.243 11,32.5C 10.5172,31.552 10.3505,30.552 10.5,29.5 Z M 427.5,232.5 C 497.738,232.169 567.904,232.502 638,233.5C 1061.83,794 1485.67,1354.5 1909.5,1915C 1843.93,1915.83 1778.43,1915.66 1713,1914.5C 1284.26,1353.94 855.76,793.272 427.5,232.5 Z"/></g>
<g><path style="opacity:1" fill="#9258f8" d="M 338.5,184.5 C 339.496,184.414 340.329,184.748 341,185.5C 342.012,191.72 340.845,192.054 337.5,186.5C 337.863,185.817 338.196,185.15 338.5,184.5 Z"/></g>
</svg>
